  0
SECTION
  2
HEADER
  9
$ACADVER
  1
AC1015
  9
$ACADMAINTVER
 70
6
  9
$DWGCODEPAGE
  3
ANSI_1252
  9
$INSBASE
 10
0.0
 20
0.0
 30
0.0
  9
$EXTMIN
 10
1e+20
 20
1e+20
 30
1e+20
  9
$EXTMAX
 10
-1e+20
 20
-1e+20
 30
-1e+20
  9
$LIMMIN
 10
0.0
 20
0.0
  9
$LIMMAX
 10
420.0
 20
297.0
  9
$ORTHOMODE
 70
0
  9
$REGENMODE
 70
1
  9
$FILLMODE
 70
1
  9
$QTEXTMODE
 70
0
  9
$MIRRTEXT
 70
1
  9
$LTSCALE
 40
1.0
  9
$ATTMODE
 70
1
  9
$TEXTSIZE
 40
2.5
  9
$TRACEWID
 40
1.0
  9
$TEXTSTYLE
  7
OpenSans
  9
$CLAYER
  8
0
  9
$CELTYPE
  6
ByLayer
  9
$CECOLOR
 62
256
  9
$CELTSCALE
 40
1.0
  9
$DISPSILH
 70
0
  9
$DIMSCALE
 40
1.0
  9
$DIMASZ
 40
1.0
  9
$DIMEXO
 40
0.5
  9
$DIMDLI
 40
3.75
  9
$DIMRND
 40
0.0
  9
$DIMDLE
 40
0.0
  9
$DIMEXE
 40
0.6
  9
$DIMTP
 40
0.0
  9
$DIMTM
 40
0.0
  9
$DIMTXT
 40
1.6
  9
$DIMCEN
 40
2.5
  9
$DIMTSZ
 40
0.0
  9
$DIMTOL
 70
0
  9
$DIMLIM
 70
0
  9
$DIMTIH
 70
0
  9
$DIMTOH
 70
0
  9
$DIMSE1
 70
0
  9
$DIMSE2
 70
0
  9
$DIMTAD
 70
1
  9
$DIMZIN
 70
8
  9
$DIMBLK
  1
ARCHTICK
  9
$DIMASO
 70
1
  9
$DIMSHO
 70
1
  9
$DIMPOST
  1

  9
$DIMAPOST
  1

  9
$DIMALT
 70
0
  9
$DIMALTD
 70
3
  9
$DIMALTF
 40
0.03937007874
  9
$DIMLFAC
 40
100.0
  9
$DIMTOFL
 70
1
  9
$DIMTVP
 40
0.0
  9
$DIMTIX
 70
0
  9
$DIMSOXD
 70
0
  9
$DIMSAH
 70
0
  9
$DIMBLK1
  1

  9
$DIMBLK2
  1

  9
$DIMSTYLE
  2
EZDXF
  9
$DIMCLRD
 70
3
  9
$DIMCLRE
 70
3
  9
$DIMCLRT
 70
0
  9
$DIMTFAC
 40
0.5
  9
$DIMGAP
 40
0.4
  9
$DIMJUST
 70
0
  9
$DIMSD1
 70
0
  9
$DIMSD2
 70
0
  9
$DIMTOLJ
 70
0
  9
$DIMTZIN
 70
8
  9
$DIMALTZ
 70
0
  9
$DIMALTTZ
 70
0
  9
$DIMUPT
 70
1
  9
$DIMDEC
 70
1
  9
$DIMTDEC
 70
2
  9
$DIMALTU
 70
2
  9
$DIMALTTD
 70
3
  9
$DIMTXSTY
  7
OpenSansCondensed-Light
  9
$DIMAUNIT
 70
0
  9
$DIMADEC
 70
2
  9
$DIMALTRND
 40
0.0
  9
$DIMAZIN
 70
3
  9
$DIMDSEP
 70
46
  9
$DIMATFIT
 70
3
  9
$DIMFRAC
 70
0
  9
$DIMLDRBLK
  1

  9
$DIMLUNIT
 70
2
  9
$DIMLWD
 70
-2
  9
$DIMLWE
 70
-2
  9
$DIMTMOVE
 70
2
  9
$LUNITS
 70
2
  9
$LUPREC
 70
4
  9
$SKETCHINC
 40
1.0
  9
$FILLETRAD
 40
10.0
  9
$AUNITS
 70
0
  9
$AUPREC
 70
2
  9
$MENU
  1
.
  9
$ELEVATION
 40
0.0
  9
$PELEVATION
 40
0.0
  9
$THICKNESS
 40
0.0
  9
$LIMCHECK
 70
0
  9
$CHAMFERA
 40
0.0
  9
$CHAMFERB
 40
0.0
  9
$CHAMFERC
 40
0.0
  9
$CHAMFERD
 40
0.0
  9
$SKPOLY
 70
0
  9
$TDCREATE
 40
2461312.483113426
  9
$TDUCREATE
 40
2458532.153996898
  9
$TDUPDATE
 40
2461312.483113426
  9
$TDUUPDATE
 40
2458532.1544311
  9
$TDINDWG
 40
0.0
  9
$TDUSRTIMER
 40
0.0
  9
$USRTIMER
 70
1
  9
$ANGBASE
 50
0.0
  9
$ANGDIR
 70
0
  9
$PDMODE
 70
0
  9
$PDSIZE
 40
0.0
  9
$PLINEWID
 40
0.0
  9
$SPLFRAME
 70
0
  9
$SPLINETYPE
 70
6
  9
$SPLINESEGS
 70
8
  9
$HANDSEED
  5
23D
  9
$SURFTAB1
 70
6
  9
$SURFTAB2
 70
6
  9
$SURFTYPE
 70
6
  9
$SURFU
 70
6
  9
$SURFV
 70
6
  9
$UCSBASE
  2

  9
$UCSNAME
  2

  9
$UCSORG
 10
0.0
 20
0.0
 30
0.0
  9
$UCSXDIR
 10
1.0
 20
0.0
 30
0.0
  9
$UCSYDIR
 10
0.0
 20
1.0
 30
0.0
  9
$UCSORTHOREF
  2

  9
$UCSORTHOVIEW
 70
0
  9
$UCSORGTOP
 10
0.0
 20
0.0
 30
0.0
  9
$UCSORGBOTTOM
 10
0.0
 20
0.0
 30
0.0
  9
$UCSORGLEFT
 10
0.0
 20
0.0
 30
0.0
  9
$UCSORGRIGHT
 10
0.0
 20
0.0
 30
0.0
  9
$UCSORGFRONT
 10
0.0
 20
0.0
 30
0.0
  9
$UCSORGBACK
 10
0.0
 20
0.0
 30
0.0
  9
$PUCSBASE
  2

  9
$PUCSNAME
  2

  9
$PUCSORG
 10
0.0
 20
0.0
 30
0.0
  9
$PUCSXDIR
 10
1.0
 20
0.0
 30
0.0
  9
$PUCSYDIR
 10
0.0
 20
1.0
 30
0.0
  9
$PUCSORTHOREF
  2

  9
$PUCSORTHOVIEW
 70
0
  9
$PUCSORGTOP
 10
0.0
 20
0.0
 30
0.0
  9
$PUCSORGBOTTOM
 10
0.0
 20
0.0
 30
0.0
  9
$PUCSORGLEFT
 10
0.0
 20
0.0
 30
0.0
  9
$PUCSORGRIGHT
 10
0.0
 20
0.0
 30
0.0
  9
$PUCSORGFRONT
 10
0.0
 20
0.0
 30
0.0
  9
$PUCSORGBACK
 10
0.0
 20
0.0
 30
0.0
  9
$USERI1
 70
0
  9
$USERI2
 70
0
  9
$USERI3
 70
0
  9
$USERI4
 70
0
  9
$USERI5
 70
0
  9
$USERR1
 40
0.0
  9
$USERR2
 40
0.0
  9
$USERR3
 40
0.0
  9
$USERR4
 40
0.0
  9
$USERR5
 40
0.0
  9
$WORLDVIEW
 70
1
  9
$SHADEDGE
 70
3
  9
$SHADEDIF
 70
70
  9
$TILEMODE
 70
1
  9
$MAXACTVP
 70
64
  9
$PINSBASE
 10
0.0
 20
0.0
 30
0.0
  9
$PLIMCHECK
 70
0
  9
$PEXTMIN
 10
1e+20
 20
1e+20
 30
1e+20
  9
$PEXTMAX
 10
-1e+20
 20
-1e+20
 30
-1e+20
  9
$PLIMMIN
 10
0.0
 20
0.0
  9
$PLIMMAX
 10
420.0
 20
297.0
  9
$UNITMODE
 70
0
  9
$VISRETAIN
 70
1
  9
$PLINEGEN
 70
0
  9
$PSLTSCALE
 70
1
  9
$TREEDEPTH
 70
3020
  9
$CMLSTYLE
  2
Standard
  9
$CMLJUST
 70
0
  9
$CMLSCALE
 40
20.0
  9
$PROXYGRAPHICS
 70
1
  9
$MEASUREMENT
 70
1
  9
$CELWEIGHT
370
-1
  9
$ENDCAPS
280
0
  9
$JOINSTYLE
280
0
  9
$LWDISPLAY
290
0
  9
$INSUNITS
 70
4
  9
$HYPERLINKBASE
  1

  9
$STYLESHEET
  1

  9
$XEDIT
290
1
  9
$CEPSNTYPE
380
0
  9
$PSTYLEMODE
290
1
  9
$FINGERPRINTGUID
  2
{3EC36292-BC38-4B3A-A50C-345E14D64BC1}
  9
$VERSIONGUID
  2
{551C215D-1845-4C6A-8C88-4C76BDA84E6D}
  9
$EXTNAMES
290
1
  9
$PSVPSCALE
 40
0.0
  9
$OLESTARTUP
290
0
  0
ENDSEC
  0
SECTION
  2
CLASSES
  0
CLASS
  1
ACDBDICTIONARYWDFLT
  2
AcDbDictionaryWithDefault
  3
ObjectDBX Classes
 90
0
280
0
281
0
  0
CLASS
  1
SUN
  2
AcDbSun
  3
SCENEOE
 90
1153
280
0
281
0
  0
CLASS
  1
VISUALSTYLE
  2
AcDbVisualStyle
  3
ObjectDBX Classes
 90
4095
280
0
281
0
  0
CLASS
  1
MATERIAL
  2
AcDbMaterial
  3
ObjectDBX Classes
 90
1153
280
0
281
0
  0
CLASS
  1
SCALE
  2
AcDbScale
  3
ObjectDBX Classes
 90
1153
280
0
281
0
  0
CLASS
  1
TABLESTYLE
  2
AcDbTableStyle
  3
ObjectDBX Classes
 90
4095
280
0
281
0
  0
CLASS
  1
MLEADERSTYLE
  2
AcDbMLeaderStyle
  3
ACDB_MLEADERSTYLE_CLASS
 90
4095
280
0
281
0
  0
CLASS
  1
DICTIONARYVAR
  2
AcDbDictionaryVar
  3
ObjectDBX Classes
 90
0
280
0
281
0
  0
CLASS
  1
CELLSTYLEMAP
  2
AcDbCellStyleMap
  3
ObjectDBX Classes
 90
1152
280
0
281
0
  0
CLASS
  1
MENTALRAYRENDERSETTINGS
  2
AcDbMentalRayRenderSettings
  3
SCENEOE
 90
1024
280
0
281
0
  0
CLASS
  1
ACDBDETAILVIEWSTYLE
  2
AcDbDetailViewStyle
  3
ObjectDBX Classes
 90
1025
280
0
281
0
  0
CLASS
  1
ACDBSECTIONVIEWSTYLE
  2
AcDbSectionViewStyle
  3
ObjectDBX Classes
 90
1025
280
0
281
0
  0
CLASS
  1
RASTERVARIABLES
  2
AcDbRasterVariables
  3
ISM
 90
0
280
0
281
0
  0
CLASS
  1
ACDBPLACEHOLDER
  2
AcDbPlaceHolder
  3
ObjectDBX Classes
 90
0
280
0
281
0
  0
CLASS
  1
LAYOUT
  2
AcDbLayout
  3
ObjectDBX Classes
 90
0
280
0
281
0
  0
ENDSEC
  0
SECTION
  2
TABLES
  0
TABLE
  2
VPORT
  5
8
330
0
100
AcDbSymbolTable
 70
1
  0
VPORT
  5
23
330
8
100
AcDbSymbolTableRecord
100
AcDbViewportTableRecord
  2
*Active
 70
0
 10
0.0
 20
0.0
 11
1.0
 21
1.0
 12
0.0
 22
0.0
 13
0.0
 23
0.0
 14
0.5
 24
0.5
 15
0.5
 25
0.5
 16
0.0
 26
0.0
 36
1.0
 17
0.0
 27
0.0
 37
0.0
 40
1000.0
 41
1.34
 42
50.0
 43
0.0
 44
0.0
 50
0.0
 51
0.0
 71
0
 72
1000
 73
1
 74
3
 75
0
 76
0
 77
0
 78
0
281
0
 65
0
146
0.0
  0
ENDTAB
  0
TABLE
  2
LTYPE
  5
2
330
0
100
AcDbSymbolTable
 70
21
  0
LTYPE
  5
24
330
2
100
AcDbSymbolTableRecord
100
AcDbLinetypeTableRecord
  2
ByBlock
 70
0
  3

 72
65
 73
0
 40
0.0
  0
LTYPE
  5
25
330
2
100
AcDbSymbolTableRecord
100
AcDbLinetypeTableRecord
  2
ByLayer
 70
0
  3

 72
65
 73
0
 40
0.0
  0
LTYPE
  5
26
330
2
100
AcDbSymbolTableRecord
100
AcDbLinetypeTableRecord
  2
Continuous
 70
0
  3

 72
65
 73
0
 40
0.0
  0
LTYPE
  5
2F
330
2
100
AcDbSymbolTableRecord
100
AcDbLinetypeTableRecord
  2
CENTER
 70
0
  3
Center ____ _ ____ _ ____ _ ____ _ ____ _ ____
 72
65
 73
4
 40
5.08
 49
3.175
 74
0
 49
-0.635
 74
0
 49
0.635
 74
0
 49
-0.635
 74
0
  0
LTYPE
  5
30
330
2
100
AcDbSymbolTableRecord
100
AcDbLinetypeTableRecord
  2
CENTERX2
 70
0
  3
Center (2x) ________  __  ________  __  ________
 72
65
 73
4
 40
8.89
 49
6.35
 74
0
 49
-0.635
 74
0
 49
1.27
 74
0
 49
-0.635
 74
0
  0
LTYPE
  5
31
330
2
100
AcDbSymbolTableRecord
100
AcDbLinetypeTableRecord
  2
CENTER2
 70
0
  3
Center (.5x) ____ _ ____ _ ____ _ ____ _ ____
 72
65
 73
4
 40
2.54
 49
1.587
 74
0
 49
-0.318
 74
0
 49
0.318
 74
0
 49
-0.318
 74
0
  0
LTYPE
  5
32
330
2
100
AcDbSymbolTableRecord
100
AcDbLinetypeTableRecord
  2
DASHED
 70
0
  3
Dashed __ __ __ __ __ __ __ __ __ __ __ __ __ _
 72
65
 73
2
 40
1.524
 49
1.27
 74
0
 49
-0.254
 74
0
  0
LTYPE
  5
33
330
2
100
AcDbSymbolTableRecord
100
AcDbLinetypeTableRecord
  2
DASHEDX2
 70
0
  3
Dashed (2x) ____  ____  ____  ____  ____  ____
 72
65
 73
2
 40
3.048
 49
2.54
 74
0
 49
-0.508
 74
0
  0
LTYPE
  5
34
330
2
100
AcDbSymbolTableRecord
100
AcDbLinetypeTableRecord
  2
DASHED2
 70
0
  3
Dashed (.5x) _ _ _ _ _ _ _ _ _ _ _ _ _ _
 72
65
 73
2
 40
0.762
 49
0.635
 74
0
 49
-0.127
 74
0
  0
LTYPE
  5
35
330
2
100
AcDbSymbolTableRecord
100
AcDbLinetypeTableRecord
  2
PHANTOM
 70
0
  3
Phantom ______  __  __  ______  __  __  ______
 72
65
 73
6
 40
6.35
 49
3.175
 74
0
 49
-0.635
 74
0
 49
0.635
 74
0
 49
-0.635
 74
0
 49
0.635
 74
0
 49
-0.635
 74
0
  0
LTYPE
  5
36
330
2
100
AcDbSymbolTableRecord
100
AcDbLinetypeTableRecord
  2
PHANTOMX2
 70
0
  3
Phantom (2x)____________    ____    ____    ____________
 72
65
 73
6
 40
10.795
 49
6.35
 74
0
 49
-0.635
 74
0
 49
1.27
 74
0
 49
-0.635
 74
0
 49
1.27
 74
0
 49
-0.635
 74
0
  0
LTYPE
  5
37
330
2
100
AcDbSymbolTableRecord
100
AcDbLinetypeTableRecord
  2
PHANTOM2
 70
0
  3
Phantom (.5x) ___ _ _ ___ _ _ ___ _ _ ___ _ _ ___
 72
65
 73
6
 40
3.175
 49
1.587
 74
0
 49
-0.318
 74
0
 49
0.318
 74
0
 49
-0.318
 74
0
 49
0.318
 74
0
 49
-0.318
 74
0
  0
LTYPE
  5
38
330
2
100
AcDbSymbolTableRecord
100
AcDbLinetypeTableRecord
  2
DASHDOT
 70
0
  3
Dash dot __ . __ . __ . __ . __ . __ . __ . __
 72
65
 73
4
 40
3.556
 49
2.54
 74
0
 49
-0.508
 74
0
 49
0.0
 74
0
 49
-0.508
 74
0
  0
LTYPE
  5
39
330
2
100
AcDbSymbolTableRecord
100
AcDbLinetypeTableRecord
  2
DASHDOTX2
 70
0
  3
Dash dot (2x) ____  .  ____  .  ____  .  ____
 72
65
 73
4
 40
6.096
 49
5.08
 74
0
 49
-0.508
 74
0
 49
0.0
 74
0
 49
-0.508
 74
0
  0
LTYPE
  5
3A
330
2
100
AcDbSymbolTableRecord
100
AcDbLinetypeTableRecord
  2
DASHDOT2
 70
0
  3
Dash dot (.5x) _ . _ . _ . _ . _ . _ . _ . _
 72
65
 73
4
 40
1.778
 49
1.27
 74
0
 49
-0.254
 74
0
 49
0.0
 74
0
 49
-0.254
 74
0
  0
LTYPE
  5
3B
330
2
100
AcDbSymbolTableRecord
100
AcDbLinetypeTableRecord
  2
DOT
 70
0
  3
Dot .  .  .  .  .  .  .  .  .  .  .  .  .  .  .  .
 72
65
 73
2
 40
0.508
 49
0.0
 74
0
 49
-0.508
 74
0
  0
LTYPE
  5
3C
330
2
100
AcDbSymbolTableRecord
100
AcDbLinetypeTableRecord
  2
DOTX2
 70
0
  3
Dot (2x) .    .    .    .    .    .    .    . 
 72
65
 73
2
 40
1.016
 49
0.0
 74
0
 49
-1.016
 74
0
  0
LTYPE
  5
3D
330
2
100
AcDbSymbolTableRecord
100
AcDbLinetypeTableRecord
  2
DOT2
 70
0
  3
Dot (.5) . . . . . . . . . . . . . . . . . . . 
 72
65
 73
2
 40
0.254
 49
0.0
 74
0
 49
-0.254
 74
0
  0
LTYPE
  5
3E
330
2
100
AcDbSymbolTableRecord
100
AcDbLinetypeTableRecord
  2
DIVIDE
 70
0
  3
Divide __ . . __ . . __ . . __ . . __ . . __
 72
65
 73
6
 40
4.064
 49
2.54
 74
0
 49
-0.508
 74
0
 49
0.0
 74
0
 49
-0.508
 74
0
 49
0.0
 74
0
 49
-0.508
 74
0
  0
LTYPE
  5
3F
330
2
100
AcDbSymbolTableRecord
100
AcDbLinetypeTableRecord
  2
DIVIDEX2
 70
0
  3
Divide (2x) ____  . .  ____  . .  ____  . .  ____
 72
65
 73
6
 40
6.604
 49
5.08
 74
0
 49
-0.508
 74
0
 49
0.0
 74
0
 49
-0.508
 74
0
 49
0.0
 74
0
 49
-0.508
 74
0
  0
LTYPE
  5
40
330
2
100
AcDbSymbolTableRecord
100
AcDbLinetypeTableRecord
  2
DIVIDE2
 70
0
  3
Divide(.5x) _ . _ . _ . _ . _ . _ . _ . _
 72
65
 73
6
 40
2.032
 49
1.27
 74
0
 49
-0.254
 74
0
 49
0.0
 74
0
 49
-0.254
 74
0
 49
0.0
 74
0
 49
-0.254
 74
0
  0
ENDTAB
  0
TABLE
  2
LAYER
  5
1
330
0
100
AcDbSymbolTable
 70
10
  0
LAYER
  5
27
330
1
100
AcDbSymbolTableRecord
100
AcDbLayerTableRecord
  2
0
 70
0
 62
7
  6
Continuous
370
-3
390
13
  0
LAYER
  5
28
330
1
100
AcDbSymbolTableRecord
100
AcDbLayerTableRecord
  2
Defpoints
 70
0
 62
7
  6
Continuous
290
0
370
-3
390
13
  0
LAYER
  5
8A
330
1
100
AcDbSymbolTableRecord
100
AcDbLayerTableRecord
  2
OUTLINE
 70
0
 62
7
  6
Continuous
370
50
390
13
  0
LAYER
  5
8B
330
1
100
AcDbSymbolTableRecord
100
AcDbLayerTableRecord
  2
HIDDEN
 70
0
 62
8
  6
DASHED
370
25
390
13
  0
LAYER
  5
8C
330
1
100
AcDbSymbolTableRecord
100
AcDbLayerTableRecord
  2
CENTER
 70
0
 62
1
  6
CENTER
370
18
390
13
  0
LAYER
  5
8D
330
1
100
AcDbSymbolTableRecord
100
AcDbLayerTableRecord
  2
BOARD
 70
0
 62
5
  6
DASHED
370
18
390
13
  0
LAYER
  5
8E
330
1
100
AcDbSymbolTableRecord
100
AcDbLayerTableRecord
  2
DIM
 70
0
 62
3
  6
Continuous
370
18
390
13
  0
LAYER
  5
8F
330
1
100
AcDbSymbolTableRecord
100
AcDbLayerTableRecord
  2
TEXT
 70
0
 62
7
  6
Continuous
370
25
390
13
  0
LAYER
  5
90
330
1
100
AcDbSymbolTableRecord
100
AcDbLayerTableRecord
  2
HATCH
 70
0
 62
8
  6
Continuous
370
13
390
13
  0
LAYER
  5
91
330
1
100
AcDbSymbolTableRecord
100
AcDbLayerTableRecord
  2
FRAME
 70
0
 62
7
  6
Continuous
370
50
390
13
  0
ENDTAB
  0
TABLE
  2
STYLE
  5
5
330
0
100
AcDbSymbolTable
 70
26
  0
STYLE
  5
29
330
5
100
AcDbSymbolTableRecord
100
AcDbTextStyleTableRecord
  2
Standard
 70
0
 40
0.0
 41
1.0
 50
0.0
 71
0
 42
2.5
  3
txt
  4

  0
STYLE
  5
41
330
5
100
AcDbSymbolTableRecord
100
AcDbTextStyleTableRecord
  2
OpenSans-Light
 70
0
 40
0.0
 41
1.0
 50
0.0
 71
0
 42
2.5
  3
OpenSans-Light.ttf
  4

  0
STYLE
  5
42
330
5
100
AcDbSymbolTableRecord
100
AcDbTextStyleTableRecord
  2
OpenSans-Light-Italic
 70
0
 40
0.0
 41
1.0
 50
0.0
 71
0
 42
2.5
  3
OpenSans-LightItalic.ttf
  4

  0
STYLE
  5
43
330
5
100
AcDbSymbolTableRecord
100
AcDbTextStyleTableRecord
  2
OpenSans
 70
0
 40
0.0
 41
1.0
 50
0.0
 71
0
 42
2.5
  3
OpenSans-Regular.ttf
  4

  0
STYLE
  5
44
330
5
100
AcDbSymbolTableRecord
100
AcDbTextStyleTableRecord
  2
OpenSans-Italic
 70
0
 40
0.0
 41
1.0
 50
0.0
 71
0
 42
2.5
  3
OpenSans-Italic.ttf
  4

  0
STYLE
  5
45
330
5
100
AcDbSymbolTableRecord
100
AcDbTextStyleTableRecord
  2
OpenSans-SemiBold
 70
0
 40
0.0
 41
1.0
 50
0.0
 71
0
 42
2.5
  3
OpenSans-SemiBold.ttf
  4

  0
STYLE
  5
46
330
5
100
AcDbSymbolTableRecord
100
AcDbTextStyleTableRecord
  2
OpenSans-SemiBoldItalic
 70
0
 40
0.0
 41
1.0
 50
0.0
 71
0
 42
2.5
  3
OpenSans-SemiBoldItalic.ttf
  4

  0
STYLE
  5
47
330
5
100
AcDbSymbolTableRecord
100
AcDbTextStyleTableRecord
  2
OpenSans-Bold
 70
0
 40
0.0
 41
1.0
 50
0.0
 71
0
 42
2.5
  3
OpenSans-Bold.ttf
  4

  0
STYLE
  5
48
330
5
100
AcDbSymbolTableRecord
100
AcDbTextStyleTableRecord
  2
OpenSans-BoldItalic
 70
0
 40
0.0
 41
1.0
 50
0.0
 71
0
 42
2.5
  3
OpenSans-BoldItalic.ttf
  4

  0
STYLE
  5
49
330
5
100
AcDbSymbolTableRecord
100
AcDbTextStyleTableRecord
  2
OpenSans-ExtraBold
 70
0
 40
0.0
 41
1.0
 50
0.0
 71
0
 42
2.5
  3
OpenSans-ExtraBold.ttf
  4

  0
STYLE
  5
4A
330
5
100
AcDbSymbolTableRecord
100
AcDbTextStyleTableRecord
  2
OpenSans-ExtraBoldItalic
 70
0
 40
0.0
 41
1.0
 50
0.0
 71
0
 42
2.5
  3
OpenSans-ExtraBoldItalic.ttf
  4

  0
STYLE
  5
4B
330
5
100
AcDbSymbolTableRecord
100
AcDbTextStyleTableRecord
  2
OpenSansCondensed-Bold
 70
0
 40
0.0
 41
1.0
 50
0.0
 71
0
 42
2.5
  3
OpenSansCondensed-Bold.ttf
  4

  0
STYLE
  5
4C
330
5
100
AcDbSymbolTableRecord
100
AcDbTextStyleTableRecord
  2
OpenSansCondensed-Light
 70
0
 40
0.0
 41
1.0
 50
0.0
 71
0
 42
2.5
  3
OpenSansCondensed-Light.ttf
  4

  0
STYLE
  5
4D
330
5
100
AcDbSymbolTableRecord
100
AcDbTextStyleTableRecord
  2
OpenSansCondensed-Italic
 70
0
 40
0.0
 41
1.0
 50
0.0
 71
0
 42
2.5
  3
OpenSansCondensed-LightItalic.ttf
  4

  0
STYLE
  5
4E
330
5
100
AcDbSymbolTableRecord
100
AcDbTextStyleTableRecord
  2
LiberationSans
 70
0
 40
0.0
 41
1.0
 50
0.0
 71
0
 42
2.5
  3
LiberationSans-Regular.ttf
  4

  0
STYLE
  5
4F
330
5
100
AcDbSymbolTableRecord
100
AcDbTextStyleTableRecord
  2
LiberationSans-Bold
 70
0
 40
0.0
 41
1.0
 50
0.0
 71
0
 42
2.5
  3
LiberationSans-Bold.ttf
  4

  0
STYLE
  5
50
330
5
100
AcDbSymbolTableRecord
100
AcDbTextStyleTableRecord
  2
LiberationSans-BoldItalic
 70
0
 40
0.0
 41
1.0
 50
0.0
 71
0
 42
2.5
  3
LiberationSans-BoldItalic.ttf
  4

  0
STYLE
  5
51
330
5
100
AcDbSymbolTableRecord
100
AcDbTextStyleTableRecord
  2
LiberationSans-Italic
 70
0
 40
0.0
 41
1.0
 50
0.0
 71
0
 42
2.5
  3
LiberationSans-Italic.ttf
  4

  0
STYLE
  5
52
330
5
100
AcDbSymbolTableRecord
100
AcDbTextStyleTableRecord
  2
LiberationSerif
 70
0
 40
0.0
 41
1.0
 50
0.0
 71
0
 42
2.5
  3
LiberationSerif-Regular.ttf
  4

  0
STYLE
  5
53
330
5
100
AcDbSymbolTableRecord
100
AcDbTextStyleTableRecord
  2
LiberationSerif-Bold
 70
0
 40
0.0
 41
1.0
 50
0.0
 71
0
 42
2.5
  3
LiberationSerif-Bold.ttf
  4

  0
STYLE
  5
54
330
5
100
AcDbSymbolTableRecord
100
AcDbTextStyleTableRecord
  2
LiberationSerif-BoldItalic
 70
0
 40
0.0
 41
1.0
 50
0.0
 71
0
 42
2.5
  3
LiberationSerif-BoldItalic.ttf
  4

  0
STYLE
  5
55
330
5
100
AcDbSymbolTableRecord
100
AcDbTextStyleTableRecord
  2
LiberationSerif-Italic
 70
0
 40
0.0
 41
1.0
 50
0.0
 71
0
 42
2.5
  3
LiberationSerif-Italic.ttf
  4

  0
STYLE
  5
56
330
5
100
AcDbSymbolTableRecord
100
AcDbTextStyleTableRecord
  2
LiberationMono
 70
0
 40
0.0
 41
1.0
 50
0.0
 71
0
 42
2.5
  3
LiberationMono-Regular.ttf
  4

  0
STYLE
  5
57
330
5
100
AcDbSymbolTableRecord
100
AcDbTextStyleTableRecord
  2
LiberationMono-Bold
 70
0
 40
0.0
 41
1.0
 50
0.0
 71
0
 42
2.5
  3
LiberationMono-Bold.ttf
  4

  0
STYLE
  5
58
330
5
100
AcDbSymbolTableRecord
100
AcDbTextStyleTableRecord
  2
LiberationMono-BoldItalic
 70
0
 40
0.0
 41
1.0
 50
0.0
 71
0
 42
2.5
  3
LiberationMono-BoldItalic.ttf
  4

  0
STYLE
  5
59
330
5
100
AcDbSymbolTableRecord
100
AcDbTextStyleTableRecord
  2
LiberationMono-Italic
 70
0
 40
0.0
 41
1.0
 50
0.0
 71
0
 42
2.5
  3
LiberationMono-Italic.ttf
  4

  0
ENDTAB
  0
TABLE
  2
VIEW
  5
7
330
0
100
AcDbSymbolTable
 70
0
  0
ENDTAB
  0
TABLE
  2
UCS
  5
6
330
0
100
AcDbSymbolTable
 70
0
  0
ENDTAB
  0
TABLE
  2
APPID
  5
3
330
0
100
AcDbSymbolTable
 70
3
  0
APPID
  5
2A
330
3
100
AcDbSymbolTableRecord
100
AcDbRegAppTableRecord
  2
ACAD
 70
0
  0
APPID
  5
23A
330
3
100
AcDbSymbolTableRecord
100
AcDbRegAppTableRecord
  2
HATCHBACKGROUNDCOLOR
 70
0
  0
APPID
  5
23B
330
3
100
AcDbSymbolTableRecord
100
AcDbRegAppTableRecord
  2
EZDXF
 70
0
  0
ENDTAB
  0
TABLE
  2
DIMSTYLE
  5
4
330
0
100
AcDbSymbolTable
 70
12
100
AcDbDimStyleTable
  0
DIMSTYLE
105
2B
330
4
100
AcDbSymbolTableRecord
100
AcDbDimStyleTableRecord
  2
Standard
 70
0
  3

  4

 40
1.0
 41
2.5
 42
0.625
 43
3.75
 44
1.25
 45
0.0
 46
0.0
 47
0.0
 48
0.0
140
2.5
141
2.5
142
0.0
143
0.03937007874
144
1.0
145
0.0
146
1.0
147
0.625
148
0.0
 71
0
 72
0
 73
0
 74
0
 75
0
 76
0
 77
1
 78
8
 79
3
170
0
171
3
172
1
173
0
174
0
175
0
176
0
177
0
178
0
179
2
271
2
272
2
273
2
274
3
275
0
276
0
277
2
278
44
279
0
280
0
281
0
282
0
283
0
284
8
285
0
286
0
288
0
289
3
371
-2
372
-2
  0
DIMSTYLE
105
73
330
4
100
AcDbSymbolTableRecord
100
AcDbDimStyleTableRecord
  2
EZDXF
 70
0
  3

  4

 40
1.0
 41
1.0
 42
0.5
 43
3.75
 44
0.6
 45
0.0
 46
0.0
 47
0.0
 48
0.0
140
1.6
141
2.5
142
0.0
143
0.03937007874
144
100.0
145
0.0
146
0.5
147
0.4
148
0.0
 71
0
 72
0
 73
0
 74
0
 75
0
 76
0
 77
1
 78
8
 79
3
170
0
171
3
172
1
173
0
174
0
175
0
176
3
177
3
178
7
179
2
271
1
272
2
273
2
274
3
275
0
276
0
277
2
278
46
279
2
280
0
281
0
282
0
283
0
284
8
285
0
286
0
288
1
289
3
340
4C
342
74
371
-2
372
-2
  0
DIMSTYLE
105
7C
330
4
100
AcDbSymbolTableRecord
100
AcDbDimStyleTableRecord
  2
EZ_M_100_H25_CM
 70
0
  3

  4

 40
1.0
 41
0.25
 42
0.125
 43
3.75
 44
0.375
 45
0.0
 46
0.0
 47
0.0
 48
0.0
140
0.25
141
2.5
142
0.125
143
0.03937007874
144
100.0
145
0.0
146
0.5
147
0.1
148
0.0
 71
0
 72
0
 73
0
 74
0
 75
0
 76
0
 77
1
 78
12
 79
3
170
0
171
3
172
1
173
0
174
0
175
0
176
0
177
0
178
0
179
2
271
2
272
2
273
2
274
3
275
0
276
0
277
2
278
46
279
2
280
0
281
0
282
0
283
0
284
8
285
0
286
0
288
1
289
3
340
4C
371
-2
372
-2
  0
DIMSTYLE
105
7D
330
4
100
AcDbSymbolTableRecord
100
AcDbDimStyleTableRecord
  2
EZ_M_50_H25_CM
 70
0
  3

  4

 40
1.0
 41
0.125
 42
0.0625
 43
3.75
 44
0.1875
 45
0.0
 46
0.0
 47
0.0
 48
0.0
140
0.125
141
2.5
142
0.0625
143
0.03937007874
144
100.0
145
0.0
146
0.5
147
0.05
148
0.0
 71
0
 72
0
 73
0
 74
0
 75
0
 76
0
 77
1
 78
12
 79
3
170
0
171
3
172
1
173
0
174
0
175
0
176
0
177
0
178
0
179
2
271
2
272
2
273
2
274
3
275
0
276
0
277
2
278
46
279
2
280
0
281
0
282
0
283
0
284
8
285
0
286
0
288
1
289
3
340
4C
371
-2
372
-2
  0
DIMSTYLE
105
7E
330
4
100
AcDbSymbolTableRecord
100
AcDbDimStyleTableRecord
  2
EZ_M_25_H25_CM
 70
0
  3

  4

 40
1.0
 41
0.0625
 42
0.03125
 43
3.75
 44
0.09375
 45
0.0
 46
0.0
 47
0.0
 48
0.0
140
0.0625
141
2.5
142
0.03125
143
0.03937007874
144
100.0
145
0.0
146
0.5
147
0.025
148
0.0
 71
0
 72
0
 73
0
 74
0
 75
0
 76
0
 77
1
 78
12
 79
3
170
0
171
3
172
1
173
0
174
0
175
0
176
0
177
0
178
0
179
2
271
2
272
2
273
2
274
3
275
0
276
0
277
2
278
46
279
2
280
0
281
0
282
0
283
0
284
8
285
0
286
0
288
1
289
3
340
4C
371
-2
372
-2
  0
DIMSTYLE
105
7F
330
4
100
AcDbSymbolTableRecord
100
AcDbDimStyleTableRecord
  2
EZ_M_20_H25_CM
 70
0
  3

  4

 40
1.0
 41
0.05
 42
0.025
 43
3.75
 44
0.07500000000000001
 45
0.0
 46
0.0
 47
0.0
 48
0.0
140
0.05
141
2.5
142
0.025
143
0.03937007874
144
100.0
145
0.0
146
0.5
147
0.020000000000000004
148
0.0
 71
0
 72
0
 73
0
 74
0
 75
0
 76
0
 77
1
 78
12
 79
3
170
0
171
3
172
1
173
0
174
0
175
0
176
0
177
0
178
0
179
2
271
2
272
2
273
2
274
3
275
0
276
0
277
2
278
46
279
2
280
0
281
0
282
0
283
0
284
8
285
0
286
0
288
1
289
3
340
4C
371
-2
372
-2
  0
DIMSTYLE
105
80
330
4
100
AcDbSymbolTableRecord
100
AcDbDimStyleTableRecord
  2
EZ_M_10_H25_CM
 70
0
  3

  4

 40
1.0
 41
0.025
 42
0.0125
 43
3.75
 44
0.037500000000000006
 45
0.0
 46
0.0
 47
0.0
 48
0.0
140
0.025
141
2.5
142
0.0125
143
0.03937007874
144
100.0
145
0.0
146
0.5
147
0.010000000000000002
148
0.0
 71
0
 72
0
 73
0
 74
0
 75
0
 76
0
 77
1
 78
12
 79
3
170
0
171
3
172
1
173
0
174
0
175
0
176
0
177
0
178
0
179
2
271
2
272
2
273
2
274
3
275
0
276
0
277
2
278
46
279
2
280
0
281
0
282
0
283
0
284
8
285
0
286
0
288
1
289
3
340
4C
371
-2
372
-2
  0
DIMSTYLE
105
81
330
4
100
AcDbSymbolTableRecord
100
AcDbDimStyleTableRecord
  2
EZ_M_5_H25_CM
 70
0
  3

  4

 40
1.0
 41
0.0125
 42
0.00625
 43
3.75
 44
0.018750000000000003
 45
0.0
 46
0.0
 47
0.0
 48
0.0
140
0.0125
141
2.5
142
0.00625
143
0.03937007874
144
100.0
145
0.0
146
0.5
147
0.005000000000000001
148
0.0
 71
0
 72
0
 73
0
 74
0
 75
0
 76
0
 77
1
 78
12
 79
3
170
0
171
3
172
1
173
0
174
0
175
0
176
0
177
0
178
0
179
2
271
2
272
2
273
2
274
3
275
0
276
0
277
2
278
46
279
2
280
0
281
0
282
0
283
0
284
8
285
0
286
0
288
1
289
3
340
4C
371
-2
372
-2
  0
DIMSTYLE
105
82
330
4
100
AcDbSymbolTableRecord
100
AcDbDimStyleTableRecord
  2
EZ_M_1_H25_CM
 70
0
  3

  4

 40
1.0
 41
0.0025
 42
0.00125
 43
3.75
 44
0.00375
 45
0.0
 46
0.0
 47
0.0
 48
0.0
140
0.0025
141
2.5
142
0.00125
143
0.03937007874
144
100.0
145
0.0
146
0.5
147
0.001
148
0.0
 71
0
 72
0
 73
0
 74
0
 75
0
 76
0
 77
1
 78
12
 79
3
170
0
171
3
172
1
173
0
174
0
175
0
176
0
177
0
178
0
179
2
271
2
272
2
273
2
274
3
275
0
276
0
277
2
278
46
279
2
280
0
281
0
282
0
283
0
284
8
285
0
286
0
288
1
289
3
340
4C
371
-2
372
-2
  0
DIMSTYLE
105
83
330
4
100
AcDbSymbolTableRecord
100
AcDbDimStyleTableRecord
  2
EZ_RADIUS
 70
0
  3

  4

 40
1.0
 41
0.25
 42
0.125
 43
3.75
 44
0.375
 45
0.0
 46
0.0
 47
0.0
 48
0.0
140
0.25
141
0.0
142
0.0
143
0.03937007874
144
100.0
145
0.0
146
0.5
147
0.1
148
0.0
 71
0
 72
0
 73
0
 74
0
 75
0
 76
0
 77
1
 78
12
 79
3
170
0
171
3
172
0
173
0
174
0
175
0
176
0
177
0
178
0
179
2
271
2
272
2
273
2
274
3
275
0
276
0
277
2
278
46
279
1
280
0
281
0
282
0
283
0
284
8
285
0
286
0
288
1
289
3
340
4C
342
84
371
-2
372
-2
  0
DIMSTYLE
105
88
330
4
100
AcDbSymbolTableRecord
100
AcDbDimStyleTableRecord
  2
EZ_RADIUS_INSIDE
 70
0
  3

  4

 40
1.0
 41
0.25
 42
0.125
 43
3.75
 44
0.375
 45
0.0
 46
0.0
 47
0.0
 48
0.0
140
0.25
141
0.0
142
0.0
143
0.03937007874
144
100.0
145
0.0
146
0.5
147
0.1
148
0.0
 71
0
 72
0
 73
0
 74
0
 75
0
 76
0
 77
0
 78
12
 79
3
170
0
171
3
172
0
173
0
174
1
175
0
176
0
177
0
178
0
179
2
271
2
272
2
273
2
274
3
275
0
276
0
277
2
278
46
279
0
280
0
281
0
282
0
283
0
284
8
285
0
286
0
288
1
289
0
340
4C
342
84
371
-2
372
-2
  0
DIMSTYLE
105
89
330
4
100
AcDbSymbolTableRecord
100
AcDbDimStyleTableRecord
  2
EZ_CURVED
 70
0
  3

  4

 40
1.0
 41
0.25
 42
0.125
 43
3.75
 44
0.375
 45
0.0
 46
0.0
 47
0.0
 48
0.0
140
0.25
141
2.5
142
0.0
143
0.03937007874
144
100.0
145
0.0
146
0.5
147
0.1
148
0.0
 71
0
 72
0
 73
0
 74
0
 75
0
 76
0
 77
1
 78
12
 79
2
 90
2
170
0
171
3
172
1
173
0
174
0
175
0
176
0
177
0
178
0
179
2
271
2
272
2
273
2
274
3
275
0
276
0
277
2
278
46
279
2
280
0
281
0
282
0
283
0
284
8
285
0
286
0
288
1
289
3
340
4C
371
-2
372
-2
  0
ENDTAB
  0
TABLE
  2
BLOCK_RECORD
  5
9
330
0
100
AcDbSymbolTable
 70
27
  0
BLOCK_RECORD
  5
17
330
9
100
AcDbSymbolTableRecord
100
AcDbBlockTableRecord
  2
*Model_Space
340
1A
  0
BLOCK_RECORD
  5
1B
330
9
100
AcDbSymbolTableRecord
100
AcDbBlockTableRecord
  2
*Paper_Space
340
1E
  0
BLOCK_RECORD
  5
74
330
9
100
AcDbSymbolTableRecord
100
AcDbBlockTableRecord
  2
_ARCHTICK
340
0
  0
BLOCK_RECORD
  5
78
330
9
100
AcDbSymbolTableRecord
100
AcDbBlockTableRecord
  2
_CLOSEDFILLED
340
0
  0
BLOCK_RECORD
  5
84
330
9
100
AcDbSymbolTableRecord
100
AcDbBlockTableRecord
  2
_CLOSEDBLANK
340
0
  0
BLOCK_RECORD
  5
BC
330
9
100
AcDbSymbolTableRecord
100
AcDbBlockTableRecord
  2
*D1
340
0
  0
BLOCK_RECORD
  5
CB
330
9
100
AcDbSymbolTableRecord
100
AcDbBlockTableRecord
  2
*D2
340
0
  0
BLOCK_RECORD
  5
DA
330
9
100
AcDbSymbolTableRecord
100
AcDbBlockTableRecord
  2
*D3
340
0
  0
BLOCK_RECORD
  5
E9
330
9
100
AcDbSymbolTableRecord
100
AcDbBlockTableRecord
  2
*D4
340
0
  0
BLOCK_RECORD
  5
F8
330
9
100
AcDbSymbolTableRecord
100
AcDbBlockTableRecord
  2
*D5
340
0
  0
BLOCK_RECORD
  5
107
330
9
100
AcDbSymbolTableRecord
100
AcDbBlockTableRecord
  2
*D6
340
0
  0
BLOCK_RECORD
  5
116
330
9
100
AcDbSymbolTableRecord
100
AcDbBlockTableRecord
  2
*D7
340
0
  0
BLOCK_RECORD
  5
125
330
9
100
AcDbSymbolTableRecord
100
AcDbBlockTableRecord
  2
*D8
340
0
  0
BLOCK_RECORD
  5
134
330
9
100
AcDbSymbolTableRecord
100
AcDbBlockTableRecord
  2
*D9
340
0
  0
BLOCK_RECORD
  5
14E
330
9
100
AcDbSymbolTableRecord
100
AcDbBlockTableRecord
  2
*D10
340
0
  0
BLOCK_RECORD
  5
15D
330
9
100
AcDbSymbolTableRecord
100
AcDbBlockTableRecord
  2
*D11
340
0
  0
BLOCK_RECORD
  5
16C
330
9
100
AcDbSymbolTableRecord
100
AcDbBlockTableRecord
  2
*D12
340
0
  0
BLOCK_RECORD
  5
17B
330
9
100
AcDbSymbolTableRecord
100
AcDbBlockTableRecord
  2
*D13
340
0
  0
BLOCK_RECORD
  5
192
330
9
100
AcDbSymbolTableRecord
100
AcDbBlockTableRecord
  2
*D14
340
0
  0
BLOCK_RECORD
  5
1A1
330
9
100
AcDbSymbolTableRecord
100
AcDbBlockTableRecord
  2
*D15
340
0
  0
BLOCK_RECORD
  5
1B0
330
9
100
AcDbSymbolTableRecord
100
AcDbBlockTableRecord
  2
*D16
340
0
  0
BLOCK_RECORD
  5
1CD
330
9
100
AcDbSymbolTableRecord
100
AcDbBlockTableRecord
  2
*D17
340
0
  0
BLOCK_RECORD
  5
1DC
330
9
100
AcDbSymbolTableRecord
100
AcDbBlockTableRecord
  2
*D18
340
0
  0
BLOCK_RECORD
  5
1EB
330
9
100
AcDbSymbolTableRecord
100
AcDbBlockTableRecord
  2
*D19
340
0
  0
BLOCK_RECORD
  5
1FD
330
9
100
AcDbSymbolTableRecord
100
AcDbBlockTableRecord
  2
*D20
340
0
  0
BLOCK_RECORD
  5
20C
330
9
100
AcDbSymbolTableRecord
100
AcDbBlockTableRecord
  2
*D21
340
0
  0
BLOCK_RECORD
  5
21B
330
9
100
AcDbSymbolTableRecord
100
AcDbBlockTableRecord
  2
*D22
340
0
  0
ENDTAB
  0
ENDSEC
  0
SECTION
  2
BLOCKS
  0
BLOCK
  5
18
330
17
100
AcDbEntity
  8
0
100
AcDbBlockBegin
  2
*Model_Space
 70
0
 10
0.0
 20
0.0
 30
0.0
  3
*Model_Space
  1

  0
ENDBLK
  5
19
330
17
100
AcDbEntity
  8
0
100
AcDbBlockEnd
  0
BLOCK
  5
1C
330
1B
100
AcDbEntity
  8
0
100
AcDbBlockBegin
  2
*Paper_Space
 70
0
 10
0.0
 20
0.0
 30
0.0
  3
*Paper_Space
  1

  0
ENDBLK
  5
1D
330
1B
100
AcDbEntity
  8
0
100
AcDbBlockEnd
  0
BLOCK
  5
75
330
74
100
AcDbEntity
  8
0
100
AcDbBlockBegin
  2
_ARCHTICK
 70
0
 10
0.0
 20
0.0
 30
0.0
  3
_ARCHTICK
  1

  0
LWPOLYLINE
  5
77
330
74
100
AcDbEntity
  8
0
  6
BYBLOCK
 62
0
100
AcDbPolyline
 90
2
 70
0
 43
0.15
 10
-0.5
 20
-0.5
 10
0.5
 20
0.5
  0
ENDBLK
  5
76
330
74
100
AcDbEntity
  8
0
100
AcDbBlockEnd
  0
BLOCK
  5
79
330
78
100
AcDbEntity
  8
0
100
AcDbBlockBegin
  2
_CLOSEDFILLED
 70
0
 10
0.0
 20
0.0
 30
0.0
  3
_CLOSEDFILLED
  1

  0
SOLID
  5
7B
330
78
100
AcDbEntity
  8
0
  6
BYBLOCK
 62
0
100
AcDbTrace
 10
-1.0
 20
0.16439898372402537
 30
0.0
 11
0.0
 21
0.0
 31
0.0
 12
-1.0
 22
-0.16439898372402537
 32
0.0
 13
-1.0
 23
-0.16439898372402537
 33
0.0
  0
ENDBLK
  5
7A
330
78
100
AcDbEntity
  8
0
100
AcDbBlockEnd
  0
BLOCK
  5
85
330
84
100
AcDbEntity
  8
0
100
AcDbBlockBegin
  2
_CLOSEDBLANK
 70
0
 10
0.0
 20
0.0
 30
0.0
  3
_CLOSEDBLANK
  1

  0
LWPOLYLINE
  5
87
330
84
100
AcDbEntity
  8
0
  6
BYBLOCK
 62
0
100
AcDbPolyline
 90
3
 70
1
 10
-1.0
 20
0.16439898372402537
 10
0.0
 20
0.0
 10
-1.0
 20
-0.16439898372402537
  0
ENDBLK
  5
86
330
84
100
AcDbEntity
  8
0
100
AcDbBlockEnd
  0
BLOCK
  5
BD
330
BC
100
AcDbEntity
  8
0
100
AcDbBlockBegin
  2
*D1
 70
1
 10
0.0
 20
0.0
 30
0.0
  3
*D1
  1

  0
LINE
  5
BF
330
BC
100
AcDbEntity
  8
0
 62
3
100
AcDbLine
 10
21.0
 20
117.5
 30
0.0
 11
21.0
 21
126.6
 31
0.0
  0
LINE
  5
C0
330
BC
100
AcDbEntity
  8
0
 62
3
100
AcDbLine
 10
99.0
 20
117.5
 30
0.0
 11
99.0
 21
126.6
 31
0.0
  0
INSERT
  5
C1
330
BC
100
AcDbEntity
  8
DIM
 62
3
100
AcDbBlockReference
  2
_ARCHTICK
 10
21.0
 20
126.0
 30
0.0
 50
180.0
  0
INSERT
  5
C3
330
BC
100
AcDbEntity
  8
DIM
 62
3
100
AcDbBlockReference
  2
_ARCHTICK
 10
99.0
 20
126.0
 30
0.0
  0
LINE
  5
C5
330
BC
100
AcDbEntity
  8
0
 62
3
100
AcDbLine
 10
21.0
 20
126.0
 30
0.0
 11
99.0
 21
126.0
 31
0.0
  0
MTEXT
  5
C6
330
BC
100
AcDbEntity
  8
DIM
 62
7
100
AcDbMText
 10
60.0
 20
127.2
 30
0.0
 40
1.6
 71
5
  1
78
  7
OpenSansCondensed-Light
  0
POINT
  5
C7
330
BC
100
AcDbEntity
  8
Defpoints
100
AcDbPoint
 10
21.0
 20
126.0
 30
0.0
  0
POINT
  5
C8
330
BC
100
AcDbEntity
  8
Defpoints
100
AcDbPoint
 10
21.0
 20
117.0
 30
0.0
  0
POINT
  5
C9
330
BC
100
AcDbEntity
  8
Defpoints
100
AcDbPoint
 10
99.0
 20
117.0
 30
0.0
  0
ENDBLK
  5
BE
330
BC
100
AcDbEntity
  8
0
100
AcDbBlockEnd
  0
BLOCK
  5
CC
330
CB
100
AcDbEntity
  8
0
100
AcDbBlockBegin
  2
*D2
 70
1
 10
0.0
 20
0.0
 30
0.0
  3
*D2
  1

  0
LINE
  5
CE
330
CB
100
AcDbEntity
  8
0
 62
3
100
AcDbLine
 10
99.5
 20
83.0
 30
0.0
 11
107.6
 21
83.0
 31
0.0
  0
LINE
  5
CF
330
CB
100
AcDbEntity
  8
0
 62
3
100
AcDbLine
 10
99.5
 20
117.0
 30
0.0
 11
107.6
 21
117.0
 31
0.0
  0
INSERT
  5
D0
330
CB
100
AcDbEntity
  8
DIM
 62
3
100
AcDbBlockReference
  2
_ARCHTICK
 10
107.0
 20
83.0
 30
0.0
 50
270.0
  0
INSERT
  5
D2
330
CB
100
AcDbEntity
  8
DIM
 62
3
100
AcDbBlockReference
  2
_ARCHTICK
 10
107.0
 20
117.0
 30
0.0
 50
90.0
  0
LINE
  5
D4
330
CB
100
AcDbEntity
  8
0
 62
3
100
AcDbLine
 10
107.0
 20
83.0
 30
0.0
 11
107.0
 21
117.0
 31
0.0
  0
MTEXT
  5
D5
330
CB
100
AcDbEntity
  8
DIM
 62
7
100
AcDbMText
 10
105.8
 20
100.0
 30
0.0
 40
1.6
 71
5
  1
34
  7
OpenSansCondensed-Light
 50
90.0
  0
POINT
  5
D6
330
CB
100
AcDbEntity
  8
Defpoints
100
AcDbPoint
 10
107.0
 20
83.0
 30
0.0
  0
POINT
  5
D7
330
CB
100
AcDbEntity
  8
Defpoints
100
AcDbPoint
 10
99.0
 20
83.0
 30
0.0
  0
POINT
  5
D8
330
CB
100
AcDbEntity
  8
Defpoints
100
AcDbPoint
 10
99.0
 20
117.0
 30
0.0
  0
ENDBLK
  5
CD
330
CB
100
AcDbEntity
  8
0
100
AcDbBlockEnd
  0
BLOCK
  5
DB
330
DA
100
AcDbEntity
  8
0
100
AcDbBlockBegin
  2
*D3
 70
1
 10
0.0
 20
0.0
 30
0.0
  3
*D3
  1

  0
LINE
  5
DD
330
DA
100
AcDbEntity
  8
0
 62
3
100
AcDbLine
 10
41.3
 20
87.7
 30
0.0
 11
41.3
 21
76.4
 31
0.0
  0
LINE
  5
DE
330
DA
100
AcDbEntity
  8
0
 62
3
100
AcDbLine
 10
88.7
 20
87.7
 30
0.0
 11
88.7
 21
76.4
 31
0.0
  0
INSERT
  5
DF
330
DA
100
AcDbEntity
  8
DIM
 62
3
100
AcDbBlockReference
  2
_ARCHTICK
 10
41.3
 20
77.0
 30
0.0
 50
180.0
  0
INSERT
  5
E1
330
DA
100
AcDbEntity
  8
DIM
 62
3
100
AcDbBlockReference
  2
_ARCHTICK
 10
88.7
 20
77.0
 30
0.0
  0
LINE
  5
E3
330
DA
100
AcDbEntity
  8
0
 62
3
100
AcDbLine
 10
41.3
 20
77.0
 30
0.0
 11
88.7
 21
77.0
 31
0.0
  0
MTEXT
  5
E4
330
DA
100
AcDbEntity
  8
DIM
 62
7
100
AcDbMText
 10
65.0
 20
78.2
 30
0.0
 40
1.6
 71
5
  1
47.4
  7
OpenSansCondensed-Light
  0
POINT
  5
E5
330
DA
100
AcDbEntity
  8
Defpoints
100
AcDbPoint
 10
41.3
 20
77.0
 30
0.0
  0
POINT
  5
E6
330
DA
100
AcDbEntity
  8
Defpoints
100
AcDbPoint
 10
41.3
 20
88.2
 30
0.0
  0
POINT
  5
E7
330
DA
100
AcDbEntity
  8
Defpoints
100
AcDbPoint
 10
88.7
 20
88.2
 30
0.0
  0
ENDBLK
  5
DC
330
DA
100
AcDbEntity
  8
0
100
AcDbBlockEnd
  0
BLOCK
  5
EA
330
E9
100
AcDbEntity
  8
0
100
AcDbBlockBegin
  2
*D4
 70
1
 10
0.0
 20
0.0
 30
0.0
  3
*D4
  1

  0
LINE
  5
EC
330
E9
100
AcDbEntity
  8
0
 62
3
100
AcDbLine
 10
89.2
 20
88.2
 30
0.0
 11
103.1
 21
88.2
 31
0.0
  0
LINE
  5
ED
330
E9
100
AcDbEntity
  8
0
 62
3
100
AcDbLine
 10
89.2
 20
111.8
 30
0.0
 11
103.1
 21
111.8
 31
0.0
  0
INSERT
  5
EE
330
E9
100
AcDbEntity
  8
DIM
 62
3
100
AcDbBlockReference
  2
_ARCHTICK
 10
102.5
 20
88.2
 30
0.0
 50
270.0
  0
INSERT
  5
F0
330
E9
100
AcDbEntity
  8
DIM
 62
3
100
AcDbBlockReference
  2
_ARCHTICK
 10
102.5
 20
111.8
 30
0.0
 50
90.0
  0
LINE
  5
F2
330
E9
100
AcDbEntity
  8
0
 62
3
100
AcDbLine
 10
102.5
 20
88.2
 30
0.0
 11
102.5
 21
111.8
 31
0.0
  0
MTEXT
  5
F3
330
E9
100
AcDbEntity
  8
DIM
 62
7
100
AcDbMText
 10
101.3
 20
100.0
 30
0.0
 40
1.6
 71
5
  1
23.6
  7
OpenSansCondensed-Light
 50
90.0
  0
POINT
  5
F4
330
E9
100
AcDbEntity
  8
Defpoints
100
AcDbPoint
 10
102.5
 20
88.2
 30
0.0
  0
POINT
  5
F5
330
E9
100
AcDbEntity
  8
Defpoints
100
AcDbPoint
 10
88.7
 20
88.2
 30
0.0
  0
POINT
  5
F6
330
E9
100
AcDbEntity
  8
Defpoints
100
AcDbPoint
 10
88.7
 20
111.8
 30
0.0
  0
ENDBLK
  5
EB
330
E9
100
AcDbEntity
  8
0
100
AcDbBlockEnd
  0
BLOCK
  5
F9
330
F8
100
AcDbEntity
  8
0
100
AcDbBlockBegin
  2
*D5
 70
1
 10
0.0
 20
0.0
 30
0.0
  3
*D5
  1

  0
LINE
  5
FB
330
F8
100
AcDbEntity
  8
0
 62
3
100
AcDbLine
 10
21.0
 20
82.5
 30
0.0
 11
21.0
 21
71.4
 31
0.0
  0
LINE
  5
FC
330
F8
100
AcDbEntity
  8
0
 62
3
100
AcDbLine
 10
41.3
 20
87.7
 30
0.0
 11
41.3
 21
71.4
 31
0.0
  0
INSERT
  5
FD
330
F8
100
AcDbEntity
  8
DIM
 62
3
100
AcDbBlockReference
  2
_ARCHTICK
 10
21.0
 20
72.0
 30
0.0
 50
180.0
  0
INSERT
  5
FF
330
F8
100
AcDbEntity
  8
DIM
 62
3
100
AcDbBlockReference
  2
_ARCHTICK
 10
41.3
 20
72.0
 30
0.0
  0
LINE
  5
101
330
F8
100
AcDbEntity
  8
0
 62
3
100
AcDbLine
 10
21.0
 20
72.0
 30
0.0
 11
41.3
 21
72.0
 31
0.0
  0
MTEXT
  5
102
330
F8
100
AcDbEntity
  8
DIM
 62
7
100
AcDbMText
 10
31.15
 20
73.2
 30
0.0
 40
1.6
 71
5
  1
20.3
  7
OpenSansCondensed-Light
  0
POINT
  5
103
330
F8
100
AcDbEntity
  8
Defpoints
100
AcDbPoint
 10
21.0
 20
72.0
 30
0.0
  0
POINT
  5
104
330
F8
100
AcDbEntity
  8
Defpoints
100
AcDbPoint
 10
21.0
 20
83.0
 30
0.0
  0
POINT
  5
105
330
F8
100
AcDbEntity
  8
Defpoints
100
AcDbPoint
 10
41.3
 20
88.2
 30
0.0
  0
ENDBLK
  5
FA
330
F8
100
AcDbEntity
  8
0
100
AcDbBlockEnd
  0
BLOCK
  5
108
330
107
100
AcDbEntity
  8
0
100
AcDbBlockBegin
  2
*D6
 70
1
 10
0.0
 20
0.0
 30
0.0
  3
*D6
  1

  0
LINE
  5
10A
330
107
100
AcDbEntity
  8
0
 62
3
100
AcDbLine
 10
25.0
 20
88.5
 30
0.0
 11
25.0
 21
66.4
 31
0.0
  0
LINE
  5
10B
330
107
100
AcDbEntity
  8
0
 62
3
100
AcDbLine
 10
95.0
 20
88.5
 30
0.0
 11
95.0
 21
66.4
 31
0.0
  0
INSERT
  5
10C
330
107
100
AcDbEntity
  8
DIM
 62
3
100
AcDbBlockReference
  2
_ARCHTICK
 10
25.0
 20
67.0
 30
0.0
 50
180.0
  0
INSERT
  5
10E
330
107
100
AcDbEntity
  8
DIM
 62
3
100
AcDbBlockReference
  2
_ARCHTICK
 10
95.0
 20
67.0
 30
0.0
  0
LINE
  5
110
330
107
100
AcDbEntity
  8
0
 62
3
100
AcDbLine
 10
25.0
 20
67.0
 30
0.0
 11
95.0
 21
67.0
 31
0.0
  0
MTEXT
  5
111
330
107
100
AcDbEntity
  8
DIM
 62
7
100
AcDbMText
 10
60.0
 20
68.2
 30
0.0
 40
1.6
 71
5
  1
70
  7
OpenSansCondensed-Light
  0
POINT
  5
112
330
107
100
AcDbEntity
  8
Defpoints
100
AcDbPoint
 10
25.0
 20
67.0
 30
0.0
  0
POINT
  5
113
330
107
100
AcDbEntity
  8
Defpoints
100
AcDbPoint
 10
25.0
 20
89.0
 30
0.0
  0
POINT
  5
114
330
107
100
AcDbEntity
  8
Defpoints
100
AcDbPoint
 10
95.0
 20
89.0
 30
0.0
  0
ENDBLK
  5
109
330
107
100
AcDbEntity
  8
0
100
AcDbBlockEnd
  0
BLOCK
  5
117
330
116
100
AcDbEntity
  8
0
100
AcDbBlockBegin
  2
*D7
 70
1
 10
0.0
 20
0.0
 30
0.0
  3
*D7
  1

  0
LINE
  5
119
330
116
100
AcDbEntity
  8
0
 62
3
100
AcDbLine
 10
24.5
 20
89.0
 30
0.0
 11
15.4
 21
89.0
 31
0.0
  0
LINE
  5
11A
330
116
100
AcDbEntity
  8
0
 62
3
100
AcDbLine
 10
24.5
 20
111.0
 30
0.0
 11
15.4
 21
111.0
 31
0.0
  0
INSERT
  5
11B
330
116
100
AcDbEntity
  8
DIM
 62
3
100
AcDbBlockReference
  2
_ARCHTICK
 10
16.0
 20
89.0
 30
0.0
 50
270.0
  0
INSERT
  5
11D
330
116
100
AcDbEntity
  8
DIM
 62
3
100
AcDbBlockReference
  2
_ARCHTICK
 10
16.0
 20
111.0
 30
0.0
 50
90.0
  0
LINE
  5
11F
330
116
100
AcDbEntity
  8
0
 62
3
100
AcDbLine
 10
16.0
 20
89.0
 30
0.0
 11
16.0
 21
111.0
 31
0.0
  0
MTEXT
  5
120
330
116
100
AcDbEntity
  8
DIM
 62
7
100
AcDbMText
 10
14.8
 20
100.0
 30
0.0
 40
1.6
 71
5
  1
22
  7
OpenSansCondensed-Light
 50
90.0
  0
POINT
  5
121
330
116
100
AcDbEntity
  8
Defpoints
100
AcDbPoint
 10
16.0
 20
89.0
 30
0.0
  0
POINT
  5
122
330
116
100
AcDbEntity
  8
Defpoints
100
AcDbPoint
 10
25.0
 20
89.0
 30
0.0
  0
POINT
  5
123
330
116
100
AcDbEntity
  8
Defpoints
100
AcDbPoint
 10
25.0
 20
111.0
 30
0.0
  0
ENDBLK
  5
118
330
116
100
AcDbEntity
  8
0
100
AcDbBlockEnd
  0
BLOCK
  5
126
330
125
100
AcDbEntity
  8
0
100
AcDbBlockBegin
  2
*D8
 70
1
 10
0.0
 20
0.0
 30
0.0
  3
*D8
  1

  0
LINE
  5
128
330
125
100
AcDbEntity
  8
0
 62
3
100
AcDbLine
 10
40.0
 20
117.5
 30
0.0
 11
40.0
 21
122.1
 31
0.0
  0
LINE
  5
129
330
125
100
AcDbEntity
  8
0
 62
3
100
AcDbLine
 10
80.0
 20
117.5
 30
0.0
 11
80.0
 21
122.1
 31
0.0
  0
INSERT
  5
12A
330
125
100
AcDbEntity
  8
DIM
 62
3
100
AcDbBlockReference
  2
_ARCHTICK
 10
40.0
 20
121.5
 30
0.0
 50
180.0
  0
INSERT
  5
12C
330
125
100
AcDbEntity
  8
DIM
 62
3
100
AcDbBlockReference
  2
_ARCHTICK
 10
80.0
 20
121.5
 30
0.0
  0
LINE
  5
12E
330
125
100
AcDbEntity
  8
0
 62
3
100
AcDbLine
 10
40.0
 20
121.5
 30
0.0
 11
80.0
 21
121.5
 31
0.0
  0
MTEXT
  5
12F
330
125
100
AcDbEntity
  8
DIM
 62
7
100
AcDbMText
 10
60.0
 20
122.7
 30
0.0
 40
1.6
 71
5
  1
40
  7
OpenSansCondensed-Light
  0
POINT
  5
130
330
125
100
AcDbEntity
  8
Defpoints
100
AcDbPoint
 10
40.0
 20
121.5
 30
0.0
  0
POINT
  5
131
330
125
100
AcDbEntity
  8
Defpoints
100
AcDbPoint
 10
40.0
 20
117.0
 30
0.0
  0
POINT
  5
132
330
125
100
AcDbEntity
  8
Defpoints
100
AcDbPoint
 10
80.0
 20
117.0
 30
0.0
  0
ENDBLK
  5
127
330
125
100
AcDbEntity
  8
0
100
AcDbBlockEnd
  0
BLOCK
  5
135
330
134
100
AcDbEntity
  8
0
100
AcDbBlockBegin
  2
*D9
 70
1
 10
0.0
 20
0.0
 30
0.0
  3
*D9
  1

  0
LINE
  5
137
330
134
100
AcDbEntity
  8
0
 62
3
100
AcDbLine
 10
32.9
 20
90.4
 30
0.0
 11
10.4
 21
90.4
 31
0.0
  0
LINE
  5
138
330
134
100
AcDbEntity
  8
0
 62
3
100
AcDbLine
 10
32.9
 20
109.6
 30
0.0
 11
10.4
 21
109.6
 31
0.0
  0
INSERT
  5
139
330
134
100
AcDbEntity
  8
DIM
 62
3
100
AcDbBlockReference
  2
_ARCHTICK
 10
11.0
 20
90.4
 30
0.0
 50
270.0
  0
INSERT
  5
13B
330
134
100
AcDbEntity
  8
DIM
 62
3
100
AcDbBlockReference
  2
_ARCHTICK
 10
11.0
 20
109.6
 30
0.0
 50
90.0
  0
LINE
  5
13D
330
134
100
AcDbEntity
  8
0
 62
3
100
AcDbLine
 10
11.0
 20
90.4
 30
0.0
 11
11.0
 21
109.6
 31
0.0
  0
MTEXT
  5
13E
330
134
100
AcDbEntity
  8
DIM
 62
7
100
AcDbMText
 10
9.8
 20
100.0
 30
0.0
 40
1.6
 71
5
  1
19.2
  7
OpenSansCondensed-Light
 50
90.0
  0
POINT
  5
13F
330
134
100
AcDbEntity
  8
Defpoints
100
AcDbPoint
 10
11.0
 20
90.4
 30
0.0
  0
POINT
  5
140
330
134
100
AcDbEntity
  8
Defpoints
100
AcDbPoint
 10
33.4
 20
90.4
 30
0.0
  0
POINT
  5
141
330
134
100
AcDbEntity
  8
Defpoints
100
AcDbPoint
 10
33.4
 20
109.6
 30
0.0
  0
ENDBLK
  5
136
330
134
100
AcDbEntity
  8
0
100
AcDbBlockEnd
  0
BLOCK
  5
14F
330
14E
100
AcDbEntity
  8
0
100
AcDbBlockBegin
  2
*D10
 70
1
 10
0.0
 20
0.0
 30
0.0
  3
*D10
  1

  0
LINE
  5
151
330
14E
100
AcDbEntity
  8
0
 62
3
100
AcDbLine
 10
99.5
 20
42.0
 30
0.0
 11
107.6
 21
42.0
 31
0.0
  0
LINE
  5
152
330
14E
100
AcDbEntity
  8
0
 62
3
100
AcDbLine
 10
99.5
 20
57.8
 30
0.0
 11
107.6
 21
57.8
 31
0.0
  0
INSERT
  5
153
330
14E
100
AcDbEntity
  8
DIM
 62
3
100
AcDbBlockReference
  2
_ARCHTICK
 10
107.0
 20
42.0
 30
0.0
 50
270.0
  0
INSERT
  5
155
330
14E
100
AcDbEntity
  8
DIM
 62
3
100
AcDbBlockReference
  2
_ARCHTICK
 10
107.0
 20
57.8
 30
0.0
 50
90.0
  0
LINE
  5
157
330
14E
100
AcDbEntity
  8
0
 62
3
100
AcDbLine
 10
107.0
 20
42.0
 30
0.0
 11
107.0
 21
57.8
 31
0.0
  0
MTEXT
  5
158
330
14E
100
AcDbEntity
  8
DIM
 62
7
100
AcDbMText
 10
105.8
 20
49.9
 30
0.0
 40
1.6
 71
5
  1
15.8
  7
OpenSansCondensed-Light
 50
90.0
  0
POINT
  5
159
330
14E
100
AcDbEntity
  8
Defpoints
100
AcDbPoint
 10
107.0
 20
42.0
 30
0.0
  0
POINT
  5
15A
330
14E
100
AcDbEntity
  8
Defpoints
100
AcDbPoint
 10
99.0
 20
42.0
 30
0.0
  0
POINT
  5
15B
330
14E
100
AcDbEntity
  8
Defpoints
100
AcDbPoint
 10
99.0
 20
57.8
 30
0.0
  0
ENDBLK
  5
150
330
14E
100
AcDbEntity
  8
0
100
AcDbBlockEnd
  0
BLOCK
  5
15E
330
15D
100
AcDbEntity
  8
0
100
AcDbBlockBegin
  2
*D11
 70
1
 10
0.0
 20
0.0
 30
0.0
  3
*D11
  1

  0
LINE
  5
160
330
15D
100
AcDbEntity
  8
0
 62
3
100
AcDbLine
 10
99.5
 20
42.0
 30
0.0
 11
103.6
 21
42.0
 31
0.0
  0
LINE
  5
161
330
15D
100
AcDbEntity
  8
0
 62
3
100
AcDbLine
 10
99.5
 20
51.2
 30
0.0
 11
103.6
 21
51.2
 31
0.0
  0
INSERT
  5
162
330
15D
100
AcDbEntity
  8
DIM
 62
3
100
AcDbBlockReference
  2
_ARCHTICK
 10
103.0
 20
42.0
 30
0.0
 50
270.0
  0
INSERT
  5
164
330
15D
100
AcDbEntity
  8
DIM
 62
3
100
AcDbBlockReference
  2
_ARCHTICK
 10
103.0
 20
51.2
 30
0.0
 50
90.0
  0
LINE
  5
166
330
15D
100
AcDbEntity
  8
0
 62
3
100
AcDbLine
 10
103.0
 20
42.0
 30
0.0
 11
103.0
 21
51.2
 31
0.0
  0
MTEXT
  5
167
330
15D
100
AcDbEntity
  8
DIM
 62
7
100
AcDbMText
 10
101.8
 20
46.6
 30
0.0
 40
1.6
 71
5
  1
9.2
  7
OpenSansCondensed-Light
 50
90.0
  0
POINT
  5
168
330
15D
100
AcDbEntity
  8
Defpoints
100
AcDbPoint
 10
103.0
 20
42.0
 30
0.0
  0
POINT
  5
169
330
15D
100
AcDbEntity
  8
Defpoints
100
AcDbPoint
 10
99.0
 20
42.0
 30
0.0
  0
POINT
  5
16A
330
15D
100
AcDbEntity
  8
Defpoints
100
AcDbPoint
 10
99.0
 20
51.2
 30
0.0
  0
ENDBLK
  5
15F
330
15D
100
AcDbEntity
  8
0
100
AcDbBlockEnd
  0
BLOCK
  5
16D
330
16C
100
AcDbEntity
  8
0
100
AcDbBlockBegin
  2
*D12
 70
1
 10
0.0
 20
0.0
 30
0.0
  3
*D12
  1

  0
LINE
  5
16F
330
16C
100
AcDbEntity
  8
0
 62
3
100
AcDbLine
 10
39.5
 20
43.0
 30
0.0
 11
35.4
 21
43.0
 31
0.0
  0
LINE
  5
170
330
16C
100
AcDbEntity
  8
0
 62
3
100
AcDbLine
 10
39.5
 20
45.4
 30
0.0
 11
35.4
 21
45.4
 31
0.0
  0
INSERT
  5
171
330
16C
100
AcDbEntity
  8
DIM
 62
3
100
AcDbBlockReference
  2
_ARCHTICK
 10
36.0
 20
43.0
 30
0.0
 50
90.0
  0
INSERT
  5
173
330
16C
100
AcDbEntity
  8
DIM
 62
3
100
AcDbBlockReference
  2
_ARCHTICK
 10
36.0
 20
45.4
 30
0.0
 50
270.0
  0
LINE
  5
175
330
16C
100
AcDbEntity
  8
0
 62
3
100
AcDbLine
 10
36.0
 20
43.0
 30
0.0
 11
36.0
 21
45.4
 31
0.0
  0
MTEXT
  5
176
330
16C
100
AcDbEntity
  8
DIM
 62
7
100
AcDbMText
 10
34.2
 20
44.2
 30
0.0
 40
1.6
 71
5
  1
2.4
  7
OpenSansCondensed-Light
 50
90.0
  0
POINT
  5
177
330
16C
100
AcDbEntity
  8
Defpoints
100
AcDbPoint
 10
36.0
 20
43.0
 30
0.0
  0
POINT
  5
178
330
16C
100
AcDbEntity
  8
Defpoints
100
AcDbPoint
 10
40.0
 20
43.0
 30
0.0
  0
POINT
  5
179
330
16C
100
AcDbEntity
  8
Defpoints
100
AcDbPoint
 10
40.0
 20
45.4
 30
0.0
  0
ENDBLK
  5
16E
330
16C
100
AcDbEntity
  8
0
100
AcDbBlockEnd
  0
BLOCK
  5
17C
330
17B
100
AcDbEntity
  8
0
100
AcDbBlockBegin
  2
*D13
 70
1
 10
0.0
 20
0.0
 30
0.0
  3
*D13
  1

  0
LINE
  5
17E
330
17B
100
AcDbEntity
  8
0
 62
3
100
AcDbLine
 10
20.5
 20
42.0
 30
0.0
 11
16.4
 21
42.0
 31
0.0
  0
LINE
  5
17F
330
17B
100
AcDbEntity
  8
0
 62
3
100
AcDbLine
 10
20.5
 20
50.0
 30
0.0
 11
16.4
 21
50.0
 31
0.0
  0
INSERT
  5
180
330
17B
100
AcDbEntity
  8
DIM
 62
3
100
AcDbBlockReference
  2
_ARCHTICK
 10
17.0
 20
42.0
 30
0.0
 50
270.0
  0
INSERT
  5
182
330
17B
100
AcDbEntity
  8
DIM
 62
3
100
AcDbBlockReference
  2
_ARCHTICK
 10
17.0
 20
50.0
 30
0.0
 50
90.0
  0
LINE
  5
184
330
17B
100
AcDbEntity
  8
0
 62
3
100
AcDbLine
 10
17.0
 20
42.0
 30
0.0
 11
17.0
 21
50.0
 31
0.0
  0
MTEXT
  5
185
330
17B
100
AcDbEntity
  8
DIM
 62
7
100
AcDbMText
 10
15.8
 20
46.0
 30
0.0
 40
1.6
 71
5
  1
8
  7
OpenSansCondensed-Light
 50
90.0
  0
POINT
  5
186
330
17B
100
AcDbEntity
  8
Defpoints
100
AcDbPoint
 10
17.0
 20
42.0
 30
0.0
  0
POINT
  5
187
330
17B
100
AcDbEntity
  8
Defpoints
100
AcDbPoint
 10
21.0
 20
42.0
 30
0.0
  0
POINT
  5
188
330
17B
100
AcDbEntity
  8
Defpoints
100
AcDbPoint
 10
21.0
 20
50.0
 30
0.0
  0
ENDBLK
  5
17D
330
17B
100
AcDbEntity
  8
0
100
AcDbBlockEnd
  0
BLOCK
  5
193
330
192
100
AcDbEntity
  8
0
100
AcDbBlockBegin
  2
*D14
 70
1
 10
0.0
 20
0.0
 30
0.0
  3
*D14
  1

  0
LINE
  5
195
330
192
100
AcDbEntity
  8
0
 62
3
100
AcDbLine
 10
134.2
 20
56.2
 30
0.0
 11
134.2
 21
61.4
 31
0.0
  0
LINE
  5
196
330
192
100
AcDbEntity
  8
0
 62
3
100
AcDbLine
 10
145.8
 20
56.2
 30
0.0
 11
145.8
 21
61.4
 31
0.0
  0
INSERT
  5
197
330
192
100
AcDbEntity
  8
DIM
 62
3
100
AcDbBlockReference
  2
_ARCHTICK
 10
134.2
 20
60.8
 30
0.0
 50
180.0
  0
INSERT
  5
199
330
192
100
AcDbEntity
  8
DIM
 62
3
100
AcDbBlockReference
  2
_ARCHTICK
 10
145.8
 20
60.8
 30
0.0
  0
LINE
  5
19B
330
192
100
AcDbEntity
  8
0
 62
3
100
AcDbLine
 10
134.2
 20
60.8
 30
0.0
 11
145.8
 21
60.8
 31
0.0
  0
MTEXT
  5
19C
330
192
100
AcDbEntity
  8
DIM
 62
7
100
AcDbMText
 10
140.0
 20
62.0
 30
0.0
 40
1.6
 71
5
  1
11.6
  7
OpenSansCondensed-Light
  0
POINT
  5
19D
330
192
100
AcDbEntity
  8
Defpoints
100
AcDbPoint
 10
134.2
 20
60.8
 30
0.0
  0
POINT
  5
19E
330
192
100
AcDbEntity
  8
Defpoints
100
AcDbPoint
 10
134.2
 20
55.7
 30
0.0
  0
POINT
  5
19F
330
192
100
AcDbEntity
  8
Defpoints
100
AcDbPoint
 10
145.8
 20
55.7
 30
0.0
  0
ENDBLK
  5
194
330
192
100
AcDbEntity
  8
0
100
AcDbBlockEnd
  0
BLOCK
  5
1A2
330
1A1
100
AcDbEntity
  8
0
100
AcDbBlockBegin
  2
*D15
 70
1
 10
0.0
 20
0.0
 30
0.0
  3
*D15
  1

  0
LINE
  5
1A4
330
1A1
100
AcDbEntity
  8
0
 62
3
100
AcDbLine
 10
146.3
 20
49.9
 30
0.0
 11
161.6
 21
49.9
 31
0.0
  0
LINE
  5
1A5
330
1A1
100
AcDbEntity
  8
0
 62
3
100
AcDbLine
 10
146.3
 20
55.7
 30
0.0
 11
161.6
 21
55.7
 31
0.0
  0
INSERT
  5
1A6
330
1A1
100
AcDbEntity
  8
DIM
 62
3
100
AcDbBlockReference
  2
_ARCHTICK
 10
161.0
 20
49.9
 30
0.0
 50
270.0
  0
INSERT
  5
1A8
330
1A1
100
AcDbEntity
  8
DIM
 62
3
100
AcDbBlockReference
  2
_ARCHTICK
 10
161.0
 20
55.7
 30
0.0
 50
90.0
  0
LINE
  5
1AA
330
1A1
100
AcDbEntity
  8
0
 62
3
100
AcDbLine
 10
161.0
 20
49.9
 30
0.0
 11
161.0
 21
55.7
 31
0.0
  0
MTEXT
  5
1AB
330
1A1
100
AcDbEntity
  8
DIM
 62
7
100
AcDbMText
 10
159.8
 20
52.8
 30
0.0
 40
1.6
 71
5
  1
5.8
  7
OpenSansCondensed-Light
 50
90.0
  0
POINT
  5
1AC
330
1A1
100
AcDbEntity
  8
Defpoints
100
AcDbPoint
 10
161.0
 20
49.9
 30
0.0
  0
POINT
  5
1AD
330
1A1
100
AcDbEntity
  8
Defpoints
100
AcDbPoint
 10
145.8
 20
49.9
 30
0.0
  0
POINT
  5
1AE
330
1A1
100
AcDbEntity
  8
Defpoints
100
AcDbPoint
 10
145.8
 20
55.7
 30
0.0
  0
ENDBLK
  5
1A3
330
1A1
100
AcDbEntity
  8
0
100
AcDbBlockEnd
  0
BLOCK
  5
1B1
330
1B0
100
AcDbEntity
  8
0
100
AcDbBlockBegin
  2
*D16
 70
1
 10
0.0
 20
0.0
 30
0.0
  3
*D16
  1

  0
LINE
  5
1B3
330
1B0
100
AcDbEntity
  8
0
 62
3
100
AcDbLine
 10
122.5
 20
42.0
 30
0.0
 11
118.4
 21
42.0
 31
0.0
  0
LINE
  5
1B4
330
1B0
100
AcDbEntity
  8
0
 62
3
100
AcDbLine
 10
122.5
 20
52.8
 30
0.0
 11
118.4
 21
52.8
 31
0.0
  0
INSERT
  5
1B5
330
1B0
100
AcDbEntity
  8
DIM
 62
3
100
AcDbBlockReference
  2
_ARCHTICK
 10
119.0
 20
42.0
 30
0.0
 50
270.0
  0
INSERT
  5
1B7
330
1B0
100
AcDbEntity
  8
DIM
 62
3
100
AcDbBlockReference
  2
_ARCHTICK
 10
119.0
 20
52.8
 30
0.0
 50
90.0
  0
LINE
  5
1B9
330
1B0
100
AcDbEntity
  8
0
 62
3
100
AcDbLine
 10
119.0
 20
42.0
 30
0.0
 11
119.0
 21
52.8
 31
0.0
  0
MTEXT
  5
1BA
330
1B0
100
AcDbEntity
  8
DIM
 62
7
100
AcDbMText
 10
117.8
 20
47.4
 30
0.0
 40
1.6
 71
5
  1
10.8
  7
OpenSansCondensed-Light
 50
90.0
  0
POINT
  5
1BB
330
1B0
100
AcDbEntity
  8
Defpoints
100
AcDbPoint
 10
119.0
 20
42.0
 30
0.0
  0
POINT
  5
1BC
330
1B0
100
AcDbEntity
  8
Defpoints
100
AcDbPoint
 10
123.0
 20
42.0
 30
0.0
  0
POINT
  5
1BD
330
1B0
100
AcDbEntity
  8
Defpoints
100
AcDbPoint
 10
123.0
 20
52.8
 30
0.0
  0
ENDBLK
  5
1B2
330
1B0
100
AcDbEntity
  8
0
100
AcDbBlockEnd
  0
BLOCK
  5
1CE
330
1CD
100
AcDbEntity
  8
0
100
AcDbBlockBegin
  2
*D17
 70
1
 10
0.0
 20
0.0
 30
0.0
  3
*D17
  1

  0
LINE
  5
1D0
330
1CD
100
AcDbEntity
  8
0
 62
3
100
AcDbLine
 10
123.0
 20
108.3
 30
0.0
 11
123.0
 21
111.39999999999999
 31
0.0
  0
LINE
  5
1D1
330
1CD
100
AcDbEntity
  8
0
 62
3
100
AcDbLine
 10
128.2
 20
108.3
 30
0.0
 11
128.2
 21
111.39999999999999
 31
0.0
  0
INSERT
  5
1D2
330
1CD
100
AcDbEntity
  8
DIM
 62
3
100
AcDbBlockReference
  2
_ARCHTICK
 10
123.0
 20
110.8
 30
0.0
 50
180.0
  0
INSERT
  5
1D4
330
1CD
100
AcDbEntity
  8
DIM
 62
3
100
AcDbBlockReference
  2
_ARCHTICK
 10
128.2
 20
110.8
 30
0.0
  0
LINE
  5
1D6
330
1CD
100
AcDbEntity
  8
0
 62
3
100
AcDbLine
 10
123.0
 20
110.8
 30
0.0
 11
128.2
 21
110.8
 31
0.0
  0
MTEXT
  5
1D7
330
1CD
100
AcDbEntity
  8
DIM
 62
7
100
AcDbMText
 10
125.6
 20
112.0
 30
0.0
 40
1.6
 71
5
  1
5.2
  7
OpenSansCondensed-Light
  0
POINT
  5
1D8
330
1CD
100
AcDbEntity
  8
Defpoints
100
AcDbPoint
 10
123.0
 20
110.8
 30
0.0
  0
POINT
  5
1D9
330
1CD
100
AcDbEntity
  8
Defpoints
100
AcDbPoint
 10
123.0
 20
107.8
 30
0.0
  0
POINT
  5
1DA
330
1CD
100
AcDbEntity
  8
Defpoints
100
AcDbPoint
 10
128.2
 20
107.8
 30
0.0
  0
ENDBLK
  5
1CF
330
1CD
100
AcDbEntity
  8
0
100
AcDbBlockEnd
  0
BLOCK
  5
1DD
330
1DC
100
AcDbEntity
  8
0
100
AcDbBlockBegin
  2
*D18
 70
1
 10
0.0
 20
0.0
 30
0.0
  3
*D18
  1

  0
LINE
  5
1DF
330
1DC
100
AcDbEntity
  8
0
 62
3
100
AcDbLine
 10
152.3
 20
106.8
 30
0.0
 11
161.6
 21
106.8
 31
0.0
  0
LINE
  5
1E0
330
1DC
100
AcDbEntity
  8
0
 62
3
100
AcDbLine
 10
152.3
 20
107.8
 30
0.0
 11
161.6
 21
107.8
 31
0.0
  0
INSERT
  5
1E1
330
1DC
100
AcDbEntity
  8
DIM
 62
3
100
AcDbBlockReference
  2
_ARCHTICK
 10
161.0
 20
106.8
 30
0.0
 50
90.0
  0
INSERT
  5
1E3
330
1DC
100
AcDbEntity
  8
DIM
 62
3
100
AcDbBlockReference
  2
_ARCHTICK
 10
161.0
 20
107.8
 30
0.0
 50
270.0
  0
LINE
  5
1E5
330
1DC
100
AcDbEntity
  8
0
 62
3
100
AcDbLine
 10
161.0
 20
106.8
 30
0.0
 11
161.0
 21
107.8
 31
0.0
  0
MTEXT
  5
1E6
330
1DC
100
AcDbEntity
  8
DIM
 62
7
100
AcDbMText
 10
159.2
 20
107.3
 30
0.0
 40
1.6
 71
5
  1
1
  7
OpenSansCondensed-Light
 50
90.0
  0
POINT
  5
1E7
330
1DC
100
AcDbEntity
  8
Defpoints
100
AcDbPoint
 10
161.0
 20
106.8
 30
0.0
  0
POINT
  5
1E8
330
1DC
100
AcDbEntity
  8
Defpoints
100
AcDbPoint
 10
151.8
 20
106.8
 30
0.0
  0
POINT
  5
1E9
330
1DC
100
AcDbEntity
  8
Defpoints
100
AcDbPoint
 10
151.8
 20
107.8
 30
0.0
  0
ENDBLK
  5
1DE
330
1DC
100
AcDbEntity
  8
0
100
AcDbBlockEnd
  0
BLOCK
  5
1EC
330
1EB
100
AcDbEntity
  8
0
100
AcDbBlockBegin
  2
*D19
 70
1
 10
0.0
 20
0.0
 30
0.0
  3
*D19
  1

  0
LINE
  5
1EE
330
1EB
100
AcDbEntity
  8
0
 62
3
100
AcDbLine
 10
151.8
 20
106.3
 30
0.0
 11
151.8
 21
103.2
 31
0.0
  0
LINE
  5
1EF
330
1EB
100
AcDbEntity
  8
0
 62
3
100
AcDbLine
 10
152.6
 20
106.3
 30
0.0
 11
152.6
 21
103.2
 31
0.0
  0
INSERT
  5
1F0
330
1EB
100
AcDbEntity
  8
DIM
 62
3
100
AcDbBlockReference
  2
_ARCHTICK
 10
151.8
 20
103.8
 30
0.0
  0
INSERT
  5
1F2
330
1EB
100
AcDbEntity
  8
DIM
 62
3
100
AcDbBlockReference
  2
_ARCHTICK
 10
152.6
 20
103.8
 30
0.0
 50
180.0
  0
LINE
  5
1F4
330
1EB
100
AcDbEntity
  8
0
 62
3
100
AcDbLine
 10
151.8
 20
103.8
 30
0.0
 11
152.6
 21
103.8
 31
0.0
  0
MTEXT
  5
1F5
330
1EB
100
AcDbEntity
  8
DIM
 62
7
100
AcDbMText
 10
152.2
 20
105.6
 30
0.0
 40
1.6
 71
5
  1
lip 0.8
  7
OpenSansCondensed-Light
  0
POINT
  5
1F6
330
1EB
100
AcDbEntity
  8
Defpoints
100
AcDbPoint
 10
151.8
 20
103.8
 30
0.0
  0
POINT
  5
1F7
330
1EB
100
AcDbEntity
  8
Defpoints
100
AcDbPoint
 10
151.8
 20
106.8
 30
0.0
  0
POINT
  5
1F8
330
1EB
100
AcDbEntity
  8
Defpoints
100
AcDbPoint
 10
152.6
 20
106.8
 30
0.0
  0
ENDBLK
  5
1ED
330
1EB
100
AcDbEntity
  8
0
100
AcDbBlockEnd
  0
BLOCK
  5
1FE
330
1FD
100
AcDbEntity
  8
0
100
AcDbBlockBegin
  2
*D20
 70
1
 10
0.0
 20
0.0
 30
0.0
  3
*D20
  1

  0
LINE
  5
200
330
1FD
100
AcDbEntity
  8
0
 62
3
100
AcDbLine
 10
187.8
 20
100.0
 30
0.0
 11
190.9
 21
100.0
 31
0.0
  0
LINE
  5
201
330
1FD
100
AcDbEntity
  8
0
 62
3
100
AcDbLine
 10
187.8
 20
105.4
 30
0.0
 11
190.9
 21
105.4
 31
0.0
  0
INSERT
  5
202
330
1FD
100
AcDbEntity
  8
DIM
 62
3
100
AcDbBlockReference
  2
_ARCHTICK
 10
190.3
 20
100.0
 30
0.0
 50
270.0
  0
INSERT
  5
204
330
1FD
100
AcDbEntity
  8
DIM
 62
3
100
AcDbBlockReference
  2
_ARCHTICK
 10
190.3
 20
105.4
 30
0.0
 50
90.0
  0
LINE
  5
206
330
1FD
100
AcDbEntity
  8
0
 62
3
100
AcDbLine
 10
190.3
 20
100.0
 30
0.0
 11
190.3
 21
105.4
 31
0.0
  0
MTEXT
  5
207
330
1FD
100
AcDbEntity
  8
DIM
 62
7
100
AcDbMText
 10
189.10000000000002
 20
102.7
 30
0.0
 40
1.6
 71
5
  1
5.4
  7
OpenSansCondensed-Light
 50
90.0
  0
POINT
  5
208
330
1FD
100
AcDbEntity
  8
Defpoints
100
AcDbPoint
 10
190.3
 20
100.0
 30
0.0
  0
POINT
  5
209
330
1FD
100
AcDbEntity
  8
Defpoints
100
AcDbPoint
 10
187.3
 20
100.0
 30
0.0
  0
POINT
  5
20A
330
1FD
100
AcDbEntity
  8
Defpoints
100
AcDbPoint
 10
187.3
 20
105.4
 30
0.0
  0
ENDBLK
  5
1FF
330
1FD
100
AcDbEntity
  8
0
100
AcDbBlockEnd
  0
BLOCK
  5
20D
330
20C
100
AcDbEntity
  8
0
100
AcDbBlockBegin
  2
*D21
 70
1
 10
0.0
 20
0.0
 30
0.0
  3
*D21
  1

  0
LINE
  5
20F
330
20C
100
AcDbEntity
  8
0
 62
3
100
AcDbLine
 10
183.5
 20
105.9
 30
0.0
 11
183.5
 21
108.5
 31
0.0
  0
LINE
  5
210
330
20C
100
AcDbEntity
  8
0
 62
3
100
AcDbLine
 10
186.5
 20
105.9
 30
0.0
 11
186.5
 21
108.5
 31
0.0
  0
INSERT
  5
211
330
20C
100
AcDbEntity
  8
DIM
 62
3
100
AcDbBlockReference
  2
_ARCHTICK
 10
183.5
 20
107.9
 30
0.0
 50
180.0
  0
INSERT
  5
213
330
20C
100
AcDbEntity
  8
DIM
 62
3
100
AcDbBlockReference
  2
_ARCHTICK
 10
186.5
 20
107.9
 30
0.0
  0
LINE
  5
215
330
20C
100
AcDbEntity
  8
0
 62
3
100
AcDbLine
 10
183.5
 20
107.9
 30
0.0
 11
186.5
 21
107.9
 31
0.0
  0
MTEXT
  5
216
330
20C
100
AcDbEntity
  8
DIM
 62
7
100
AcDbMText
 10
185.0
 20
109.10000000000001
 30
0.0
 40
1.6
 71
5
  1
3
  7
OpenSansCondensed-Light
  0
POINT
  5
217
330
20C
100
AcDbEntity
  8
Defpoints
100
AcDbPoint
 10
183.5
 20
107.9
 30
0.0
  0
POINT
  5
218
330
20C
100
AcDbEntity
  8
Defpoints
100
AcDbPoint
 10
183.5
 20
105.4
 30
0.0
  0
POINT
  5
219
330
20C
100
AcDbEntity
  8
Defpoints
100
AcDbPoint
 10
186.5
 20
105.4
 30
0.0
  0
ENDBLK
  5
20E
330
20C
100
AcDbEntity
  8
0
100
AcDbBlockEnd
  0
BLOCK
  5
21C
330
21B
100
AcDbEntity
  8
0
100
AcDbBlockBegin
  2
*D22
 70
1
 10
0.0
 20
0.0
 30
0.0
  3
*D22
  1

  0
LINE
  5
21E
330
21B
100
AcDbEntity
  8
0
 62
3
100
AcDbLine
 10
182.7
 20
99.5
 30
0.0
 11
182.7
 21
96.60000000000001
 31
0.0
  0
LINE
  5
21F
330
21B
100
AcDbEntity
  8
0
 62
3
100
AcDbLine
 10
187.3
 20
99.5
 30
0.0
 11
187.3
 21
96.60000000000001
 31
0.0
  0
INSERT
  5
220
330
21B
100
AcDbEntity
  8
DIM
 62
3
100
AcDbBlockReference
  2
_ARCHTICK
 10
182.7
 20
97.2
 30
0.0
 50
180.0
  0
INSERT
  5
222
330
21B
100
AcDbEntity
  8
DIM
 62
3
100
AcDbBlockReference
  2
_ARCHTICK
 10
187.3
 20
97.2
 30
0.0
  0
LINE
  5
224
330
21B
100
AcDbEntity
  8
0
 62
3
100
AcDbLine
 10
182.7
 20
97.2
 30
0.0
 11
187.3
 21
97.2
 31
0.0
  0
MTEXT
  5
225
330
21B
100
AcDbEntity
  8
DIM
 62
7
100
AcDbMText
 10
185.0
 20
99.0
 30
0.0
 40
1.6
 71
5
  1
4.6
  7
OpenSansCondensed-Light
  0
POINT
  5
226
330
21B
100
AcDbEntity
  8
Defpoints
100
AcDbPoint
 10
182.7
 20
97.2
 30
0.0
  0
POINT
  5
227
330
21B
100
AcDbEntity
  8
Defpoints
100
AcDbPoint
 10
182.7
 20
100.0
 30
0.0
  0
POINT
  5
228
330
21B
100
AcDbEntity
  8
Defpoints
100
AcDbPoint
 10
187.3
 20
100.0
 30
0.0
  0
ENDBLK
  5
21D
330
21B
100
AcDbEntity
  8
0
100
AcDbBlockEnd
  0
ENDSEC
  0
SECTION
  2
ENTITIES
  0
LWPOLYLINE
  5
92
330
17
100
AcDbEntity
  8
OUTLINE
100
AcDbPolyline
 90
8
 70
1
 10
28.0
 20
83.0
 10
92.0
 20
83.0
 42
0.41421356237309503
 10
99.0
 20
90.0
 10
99.0
 20
110.0
 42
0.41421356237309503
 10
92.0
 20
117.0
 10
28.0
 20
117.0
 42
0.41421356237309503
 10
21.0
 20
110.0
 10
21.0
 20
90.0
 42
0.41421356237309503
  0
LWPOLYLINE
  5
93
330
17
100
AcDbEntity
  8
HATCH
100
AcDbPolyline
 90
8
 70
1
 10
28.0
 20
84.6
 10
92.0
 20
84.6
 42
0.41421356237309503
 10
97.4
 20
90.0
 10
97.4
 20
110.0
 42
0.41421356237309503
 10
92.0
 20
115.4
 10
28.0
 20
115.4
 42
0.41421356237309503
 10
22.6
 20
110.0
 10
22.6
 20
90.0
 42
0.41421356237309503
  0
LWPOLYLINE
  5
94
330
17
100
AcDbEntity
  8
OUTLINE
100
AcDbPolyline
 90
8
 70
1
 10
44.5
 20
88.2
 10
85.5
 20
88.2
 42
0.41421356237309503
 10
88.7
 20
91.4
 10
88.7
 20
108.6
 42
0.41421356237309503
 10
85.5
 20
111.8
 10
44.5
 20
111.8
 42
0.41421356237309503
 10
41.3
 20
108.6
 10
41.3
 20
91.4
 42
0.41421356237309503
  0
LWPOLYLINE
  5
95
330
17
100
AcDbEntity
  8
BOARD
100
AcDbPolyline
 90
8
 70
1
 10
44.5
 20
87.4
 10
85.5
 20
87.4
 42
0.41421356237309503
 10
89.5
 20
91.4
 10
89.5
 20
108.6
 42
0.41421356237309503
 10
85.5
 20
112.6
 10
44.5
 20
112.6
 42
0.41421356237309503
 10
40.5
 20
108.6
 10
40.5
 20
91.4
 42
0.41421356237309503
  0
LWPOLYLINE
  5
96
330
17
100
AcDbEntity
  8
BOARD
100
AcDbPolyline
 90
4
 70
1
 10
42.95
 20
88.65
 10
85.65
 20
88.65
 10
85.65
 20
111.35
 10
42.95
 20
111.35
  0
LWPOLYLINE
  5
97
330
17
100
AcDbEntity
  8
BOARD
100
AcDbPolyline
 90
8
 70
1
 10
29.5
 20
87.0
 10
90.5
 20
87.0
 42
0.41421356237309503
 10
91.0
 20
87.5
 10
91.0
 20
112.5
 42
0.41421356237309503
 10
90.5
 20
113.0
 10
29.5
 20
113.0
 42
0.41421356237309503
 10
29.0
 20
112.5
 10
29.0
 20
87.5
 42
0.41421356237309503
  0
LWPOLYLINE
  5
98
330
17
100
AcDbEntity
  8
HIDDEN
100
AcDbPolyline
 90
4
 70
1
 10
40.0
 20
83.0
 10
80.0
 20
83.0
 10
80.0
 20
117.0
 10
40.0
 20
117.0
  0
LWPOLYLINE
  5
99
330
17
100
AcDbEntity
  8
HIDDEN
100
AcDbPolyline
 90
4
 70
1
 10
21.0
 20
94.2
 10
29.15
 20
94.2
 10
29.15
 20
105.8
 10
21.0
 20
105.8
  0
CIRCLE
  5
9A
330
17
100
AcDbEntity
  8
OUTLINE
100
AcDbCircle
 10
33.4
 20
90.4
 30
0.0
 40
1.7
  0
CIRCLE
  5
9B
330
17
100
AcDbEntity
  8
HATCH
100
AcDbCircle
 10
33.4
 20
90.4
 30
0.0
 40
1.5
  0
LINE
  5
9C
330
17
100
AcDbEntity
  8
CENTER
100
AcDbLine
 10
30.799999999999997
 20
90.4
 30
0.0
 11
36.0
 21
90.4
 31
0.0
  0
LINE
  5
9D
330
17
100
AcDbEntity
  8
CENTER
100
AcDbLine
 10
33.4
 20
87.80000000000001
 30
0.0
 11
33.4
 21
93.0
 31
0.0
  0
CIRCLE
  5
9E
330
17
100
AcDbEntity
  8
OUTLINE
100
AcDbCircle
 10
33.4
 20
109.6
 30
0.0
 40
1.7
  0
CIRCLE
  5
9F
330
17
100
AcDbEntity
  8
HATCH
100
AcDbCircle
 10
33.4
 20
109.6
 30
0.0
 40
1.5
  0
LINE
  5
A0
330
17
100
AcDbEntity
  8
CENTER
100
AcDbLine
 10
30.799999999999997
 20
109.6
 30
0.0
 11
36.0
 21
109.6
 31
0.0
  0
LINE
  5
A1
330
17
100
AcDbEntity
  8
CENTER
100
AcDbLine
 10
33.4
 20
107.0
 30
0.0
 11
33.4
 21
112.19999999999999
 31
0.0
  0
CIRCLE
  5
A2
330
17
100
AcDbEntity
  8
HIDDEN
100
AcDbCircle
 10
25.0
 20
89.0
 30
0.0
 40
1.1
  0
CIRCLE
  5
A3
330
17
100
AcDbEntity
  8
HIDDEN
100
AcDbCircle
 10
25.0
 20
89.0
 30
0.0
 40
2.1
  0
LINE
  5
A4
330
17
100
AcDbEntity
  8
CENTER
100
AcDbLine
 10
22.0
 20
89.0
 30
0.0
 11
28.0
 21
89.0
 31
0.0
  0
LINE
  5
A5
330
17
100
AcDbEntity
  8
CENTER
100
AcDbLine
 10
25.0
 20
86.0
 30
0.0
 11
25.0
 21
92.0
 31
0.0
  0
CIRCLE
  5
A6
330
17
100
AcDbEntity
  8
HIDDEN
100
AcDbCircle
 10
25.0
 20
111.0
 30
0.0
 40
1.1
  0
CIRCLE
  5
A7
330
17
100
AcDbEntity
  8
HIDDEN
100
AcDbCircle
 10
25.0
 20
111.0
 30
0.0
 40
2.1
  0
LINE
  5
A8
330
17
100
AcDbEntity
  8
CENTER
100
AcDbLine
 10
22.0
 20
111.0
 30
0.0
 11
28.0
 21
111.0
 31
0.0
  0
LINE
  5
A9
330
17
100
AcDbEntity
  8
CENTER
100
AcDbLine
 10
25.0
 20
108.0
 30
0.0
 11
25.0
 21
114.0
 31
0.0
  0
CIRCLE
  5
AA
330
17
100
AcDbEntity
  8
HIDDEN
100
AcDbCircle
 10
95.0
 20
89.0
 30
0.0
 40
1.1
  0
CIRCLE
  5
AB
330
17
100
AcDbEntity
  8
HIDDEN
100
AcDbCircle
 10
95.0
 20
89.0
 30
0.0
 40
2.1
  0
LINE
  5
AC
330
17
100
AcDbEntity
  8
CENTER
100
AcDbLine
 10
92.0
 20
89.0
 30
0.0
 11
98.0
 21
89.0
 31
0.0
  0
LINE
  5
AD
330
17
100
AcDbEntity
  8
CENTER
100
AcDbLine
 10
95.0
 20
86.0
 30
0.0
 11
95.0
 21
92.0
 31
0.0
  0
CIRCLE
  5
AE
330
17
100
AcDbEntity
  8
HIDDEN
100
AcDbCircle
 10
95.0
 20
111.0
 30
0.0
 40
1.1
  0
CIRCLE
  5
AF
330
17
100
AcDbEntity
  8
HIDDEN
100
AcDbCircle
 10
95.0
 20
111.0
 30
0.0
 40
2.1
  0
LINE
  5
B0
330
17
100
AcDbEntity
  8
CENTER
100
AcDbLine
 10
92.0
 20
111.0
 30
0.0
 11
98.0
 21
111.0
 31
0.0
  0
LINE
  5
B1
330
17
100
AcDbEntity
  8
CENTER
100
AcDbLine
 10
95.0
 20
108.0
 30
0.0
 11
95.0
 21
114.0
 31
0.0
  0
LINE
  5
B2
330
17
100
AcDbEntity
  8
CENTER
100
AcDbLine
 10
17.0
 20
100.0
 30
0.0
 11
103.0
 21
100.0
 31
0.0
  0
LINE
  5
B3
330
17
100
AcDbEntity
  8
CENTER
100
AcDbLine
 10
60.0
 20
79.0
 30
0.0
 11
60.0
 21
121.0
 31
0.0
  0
TEXT
  5
B4
330
17
100
AcDbEntity
  8
BOARD
100
AcDbText
 10
43.95
 20
108.35
 30
0.0
 40
1.1
  1
ACTIVE AREA 42.7 x 22.7  (320 x 170 px)
 11
43.95
 21
108.35
 31
0.0
100
AcDbText
  0
TEXT
  5
B5
330
17
100
AcDbEntity
  8
HIDDEN
100
AcDbText
 10
22.200000000000003
 20
98.5
 30
0.0
 40
1.1
  1
USB-C
 11
22.200000000000003
 21
98.5
 31
0.0
100
AcDbText
  0
TEXT
  5
B6
330
17
100
AcDbEntity
  8
HIDDEN
100
AcDbText
 10
41.0
 20
84.2
 30
0.0
 40
1.0
  1
STRAP TUNNEL 40 x 2.4 (under)
 11
41.0
 21
84.2
 31
0.0
100
AcDbText
  0
LINE
  5
B7
330
17
100
AcDbEntity
  8
OUTLINE
100
AcDbLine
 10
70.0
 20
81.0
 30
0.0
 11
70.0
 21
77.0
 31
0.0
  0
TEXT
  5
B8
330
17
100
AcDbEntity
  8
TEXT
100
AcDbText
 10
71.0
 20
77.2
 30
0.0
 40
2.0
  1
A
 11
71.0
 21
77.2
 31
0.0
100
AcDbText
  0
LINE
  5
B9
330
17
100
AcDbEntity
  8
OUTLINE
100
AcDbLine
 10
70.0
 20
119.0
 30
0.0
 11
70.0
 21
123.0
 31
0.0
  0
TEXT
  5
BA
330
17
100
AcDbEntity
  8
TEXT
100
AcDbText
 10
71.0
 20
121.2
 30
0.0
 40
2.0
  1
A
 11
71.0
 21
121.2
 31
0.0
100
AcDbText
  0
DIMENSION
  5
BB
330
17
100
AcDbEntity
  8
DIM
100
AcDbDimension
  2
*D1
  3
EZDXF
 10
21.0
 20
126.0
 30
0.0
 11
60.0
 21
127.2
 31
0.0
 70
32
 71
5
  1
78
100
AcDbAlignedDimension
 13
21.0
 23
117.0
 33
0.0
 14
99.0
 24
117.0
 34
0.0
 50
0.0
100
AcDbRotatedDimension
  0
DIMENSION
  5
CA
330
17
100
AcDbEntity
  8
DIM
100
AcDbDimension
  2
*D2
  3
EZDXF
 10
107.0
 20
83.0
 30
0.0
 11
105.8
 21
100.0
 31
0.0
 70
32
 71
5
  1
34
100
AcDbAlignedDimension
 13
99.0
 23
83.0
 33
0.0
 14
99.0
 24
117.0
 34
0.0
 50
90.0
100
AcDbRotatedDimension
  0
DIMENSION
  5
D9
330
17
100
AcDbEntity
  8
DIM
100
AcDbDimension
  2
*D3
  3
EZDXF
 10
41.3
 20
77.0
 30
0.0
 11
65.0
 21
78.2
 31
0.0
 70
32
 71
5
  1
47.4
100
AcDbAlignedDimension
 13
41.3
 23
88.2
 33
0.0
 14
88.7
 24
88.2
 34
0.0
 50
0.0
100
AcDbRotatedDimension
  0
DIMENSION
  5
E8
330
17
100
AcDbEntity
  8
DIM
100
AcDbDimension
  2
*D4
  3
EZDXF
 10
102.5
 20
88.2
 30
0.0
 11
101.3
 21
100.0
 31
0.0
 70
32
 71
5
  1
23.6
100
AcDbAlignedDimension
 13
88.7
 23
88.2
 33
0.0
 14
88.7
 24
111.8
 34
0.0
 50
90.0
100
AcDbRotatedDimension
  0
DIMENSION
  5
F7
330
17
100
AcDbEntity
  8
DIM
100
AcDbDimension
  2
*D5
  3
EZDXF
 10
21.0
 20
72.0
 30
0.0
 11
31.15
 21
73.2
 31
0.0
 70
32
 71
5
  1
20.3
100
AcDbAlignedDimension
 13
21.0
 23
83.0
 33
0.0
 14
41.3
 24
88.2
 34
0.0
 50
0.0
100
AcDbRotatedDimension
  0
DIMENSION
  5
106
330
17
100
AcDbEntity
  8
DIM
100
AcDbDimension
  2
*D6
  3
EZDXF
 10
25.0
 20
67.0
 30
0.0
 11
60.0
 21
68.2
 31
0.0
 70
32
 71
5
  1
70
100
AcDbAlignedDimension
 13
25.0
 23
89.0
 33
0.0
 14
95.0
 24
89.0
 34
0.0
 50
0.0
100
AcDbRotatedDimension
  0
DIMENSION
  5
115
330
17
100
AcDbEntity
  8
DIM
100
AcDbDimension
  2
*D7
  3
EZDXF
 10
16.0
 20
89.0
 30
0.0
 11
14.8
 21
100.0
 31
0.0
 70
32
 71
5
  1
22
100
AcDbAlignedDimension
 13
25.0
 23
89.0
 33
0.0
 14
25.0
 24
111.0
 34
0.0
 50
90.0
100
AcDbRotatedDimension
  0
DIMENSION
  5
124
330
17
100
AcDbEntity
  8
DIM
100
AcDbDimension
  2
*D8
  3
EZDXF
 10
40.0
 20
121.5
 30
0.0
 11
60.0
 21
122.7
 31
0.0
 70
32
 71
5
  1
40
100
AcDbAlignedDimension
 13
40.0
 23
117.0
 33
0.0
 14
80.0
 24
117.0
 34
0.0
 50
0.0
100
AcDbRotatedDimension
  0
DIMENSION
  5
133
330
17
100
AcDbEntity
  8
DIM
100
AcDbDimension
  2
*D9
  3
EZDXF
 10
11.0
 20
90.4
 30
0.0
 11
9.8
 21
100.0
 31
0.0
 70
32
 71
5
  1
19.2
100
AcDbAlignedDimension
 13
33.4
 23
90.4
 33
0.0
 14
33.4
 24
109.6
 34
0.0
 50
90.0
100
AcDbRotatedDimension
  0
TEXT
  5
142
330
17
100
AcDbEntity
  8
TEXT
100
AcDbText
 10
21.0
 20
131.0
 30
0.0
 40
2.4
  1
TOP VIEW
 11
21.0
 21
131.0
 31
0.0
100
AcDbText
  0
LWPOLYLINE
  5
143
330
17
100
AcDbEntity
  8
OUTLINE
100
AcDbPolyline
 90
4
 70
1
 10
21.0
 20
42.0
 10
99.0
 20
42.0
 10
99.0
 20
57.8
 10
21.0
 20
57.8
  0
LINE
  5
144
330
17
100
AcDbEntity
  8
OUTLINE
100
AcDbLine
 10
21.0
 20
51.2
 30
0.0
 11
99.0
 21
51.2
 31
0.0
  0
LWPOLYLINE
  5
145
330
17
100
AcDbEntity
  8
OUTLINE
100
AcDbPolyline
 90
4
 70
1
 10
40.0
 20
43.0
 10
80.0
 20
43.0
 10
80.0
 20
45.4
 10
40.0
 20
45.4
  0
LWPOLYLINE
  5
146
330
17
100
AcDbEntity
  8
OUTLINE
100
AcDbPolyline
 90
4
 70
1
 10
31.9
 20
57.8
 10
34.9
 20
57.8
 10
34.9
 20
58.4
 10
31.9
 20
58.4
  0
LWPOLYLINE
  5
147
330
17
100
AcDbEntity
  8
OUTLINE
100
AcDbPolyline
 90
4
 70
1
 10
31.9
 20
57.8
 10
34.9
 20
57.8
 10
34.9
 20
58.4
 10
31.9
 20
58.4
  0
LWPOLYLINE
  5
148
330
17
100
AcDbEntity
  8
BOARD
100
AcDbPolyline
 90
4
 70
1
 10
29.0
 20
50.0
 10
91.0
 20
50.0
 10
91.0
 20
51.2
 10
29.0
 20
51.2
  0
LWPOLYLINE
  5
149
330
17
100
AcDbEntity
  8
BOARD
100
AcDbPolyline
 90
4
 70
1
 10
40.5
 20
51.2
 10
89.5
 20
51.2
 10
89.5
 20
56.8
 10
40.5
 20
56.8
  0
LWPOLYLINE
  5
14A
330
17
100
AcDbEntity
  8
HIDDEN
100
AcDbPolyline
 90
4
 70
1
 10
21.0
 20
49.9
 10
29.15
 20
49.9
 10
29.15
 20
55.7
 10
21.0
 20
55.7
  0
LWPOLYLINE
  5
14B
330
17
100
AcDbEntity
  8
HIDDEN
100
AcDbPolyline
 90
4
 70
1
 10
61.0
 20
46.6
 10
87.0
 20
46.6
 10
87.0
 20
49.8
 10
61.0
 20
49.8
  0
TEXT
  5
14C
330
17
100
AcDbEntity
  8
HIDDEN
100
AcDbText
 10
65.0
 20
47.4
 30
0.0
 40
0.9
  1
LiPo 302530 (opt.)
 11
65.0
 21
47.4
 31
0.0
100
AcDbText
  0
DIMENSION
  5
14D
330
17
100
AcDbEntity
  8
DIM
100
AcDbDimension
  2
*D10
  3
EZDXF
 10
107.0
 20
42.0
 30
0.0
 11
105.8
 21
49.9
 31
0.0
 70
32
 71
5
  1
15.8
100
AcDbAlignedDimension
 13
99.0
 23
42.0
 33
0.0
 14
99.0
 24
57.8
 34
0.0
 50
90.0
100
AcDbRotatedDimension
  0
DIMENSION
  5
15C
330
17
100
AcDbEntity
  8
DIM
100
AcDbDimension
  2
*D11
  3
EZDXF
 10
103.0
 20
42.0
 30
0.0
 11
101.8
 21
46.6
 31
0.0
 70
32
 71
5
  1
9.2
100
AcDbAlignedDimension
 13
99.0
 23
42.0
 33
0.0
 14
99.0
 24
51.2
 34
0.0
 50
90.0
100
AcDbRotatedDimension
  0
DIMENSION
  5
16B
330
17
100
AcDbEntity
  8
DIM
100
AcDbDimension
  2
*D12
  3
EZDXF
 10
36.0
 20
43.0
 30
0.0
 11
34.2
 21
44.2
 31
0.0
 70
32
 71
5
  1
2.4
100
AcDbAlignedDimension
 13
40.0
 23
43.0
 33
0.0
 14
40.0
 24
45.4
 34
0.0
 50
90.0
100
AcDbRotatedDimension
  0
DIMENSION
  5
17A
330
17
100
AcDbEntity
  8
DIM
100
AcDbDimension
  2
*D13
  3
EZDXF
 10
17.0
 20
42.0
 30
0.0
 11
15.8
 21
46.0
 31
0.0
 70
32
 71
5
  1
8
100
AcDbAlignedDimension
 13
21.0
 23
42.0
 33
0.0
 14
21.0
 24
50.0
 34
0.0
 50
90.0
100
AcDbRotatedDimension
  0
TEXT
  5
189
330
17
100
AcDbEntity
  8
TEXT
100
AcDbText
 10
21.0
 20
61.3
 30
0.0
 40
2.4
  1
FRONT VIEW
 11
21.0
 21
61.3
 31
0.0
100
AcDbText
  0
TEXT
  5
18A
330
17
100
AcDbEntity
  8
TEXT
100
AcDbText
 10
69.0
 20
51.7
 30
0.0
 40
1.0
  1
joint: top shell / bottom tray
 11
69.0
 21
51.7
 31
0.0
100
AcDbText
  0
LWPOLYLINE
  5
18B
330
17
100
AcDbEntity
  8
OUTLINE
100
AcDbPolyline
 90
8
 70
1
 10
124.2
 20
42.0
 10
155.8
 20
42.0
 42
0.41421356237309503
 10
157.0
 20
43.2
 10
157.0
 20
56.599999999999994
 42
0.41421356237309503
 10
155.8
 20
57.8
 10
124.2
 20
57.8
 42
0.41421356237309503
 10
123.0
 20
56.599999999999994
 10
123.0
 20
43.2
 42
0.41421356237309503
  0
LINE
  5
18C
330
17
100
AcDbEntity
  8
OUTLINE
100
AcDbLine
 10
123.0
 20
51.2
 30
0.0
 11
157.0
 21
51.2
 31
0.0
  0
LWPOLYLINE
  5
18D
330
17
100
AcDbEntity
  8
OUTLINE
100
AcDbPolyline
 90
8
 70
1
 10
136.6
 20
49.9
 10
143.4
 20
49.9
 42
0.41421356237309503
 10
145.8
 20
52.3
 10
145.8
 20
53.300000000000004
 42
0.41421356237309503
 10
143.4
 20
55.7
 10
136.6
 20
55.7
 42
0.41421356237309503
 10
134.2
 20
53.300000000000004
 10
134.2
 20
52.3
 42
0.41421356237309503
  0
LINE
  5
18E
330
17
100
AcDbEntity
  8
HIDDEN
100
AcDbLine
 10
123.0
 20
43.0
 30
0.0
 11
157.0
 21
43.0
 31
0.0
  0
LINE
  5
18F
330
17
100
AcDbEntity
  8
HIDDEN
100
AcDbLine
 10
123.0
 20
45.4
 30
0.0
 11
157.0
 21
45.4
 31
0.0
  0
LINE
  5
190
330
17
100
AcDbEntity
  8
CENTER
100
AcDbLine
 10
140.0
 20
39.0
 30
0.0
 11
140.0
 21
60.8
 31
0.0
  0
DIMENSION
  5
191
330
17
100
AcDbEntity
  8
DIM
100
AcDbDimension
  2
*D14
  3
EZDXF
 10
134.2
 20
60.8
 30
0.0
 11
140.0
 21
62.0
 31
0.0
 70
32
 71
5
  1
11.6
100
AcDbAlignedDimension
 13
134.2
 23
55.7
 33
0.0
 14
145.8
 24
55.7
 34
0.0
 50
0.0
100
AcDbRotatedDimension
  0
DIMENSION
  5
1A0
330
17
100
AcDbEntity
  8
DIM
100
AcDbDimension
  2
*D15
  3
EZDXF
 10
161.0
 20
49.9
 30
0.0
 11
159.8
 21
52.8
 31
0.0
 70
32
 71
5
  1
5.8
100
AcDbAlignedDimension
 13
145.8
 23
49.9
 33
0.0
 14
145.8
 24
55.7
 34
0.0
 50
90.0
100
AcDbRotatedDimension
  0
DIMENSION
  5
1AF
330
17
100
AcDbEntity
  8
DIM
100
AcDbDimension
  2
*D16
  3
EZDXF
 10
119.0
 20
42.0
 30
0.0
 11
117.8
 21
47.4
 31
0.0
 70
32
 71
5
  1
10.8
100
AcDbAlignedDimension
 13
123.0
 23
42.0
 33
0.0
 14
123.0
 24
52.8
 34
0.0
 50
90.0
100
AcDbRotatedDimension
  0
TEXT
  5
1BE
330
17
100
AcDbEntity
  8
TEXT
100
AcDbText
 10
123.0
 20
65.8
 30
0.0
 40
2.4
  1
END VIEW (USB-C)
 11
123.0
 21
65.8
 31
0.0
100
AcDbText
  0
LWPOLYLINE
  5
1BF
330
17
100
AcDbEntity
  8
OUTLINE
100
AcDbPolyline
 90
4
 70
1
 10
123.0
 20
92.0
 10
157.0
 20
92.0
 10
157.0
 20
93.0
 10
123.0
 20
93.0
  0
HATCH
  5
1C0
330
17
100
AcDbEntity
  8
HATCH
 62
7
100
AcDbHatch
 10
0.0
 20
0.0
 30
0.0
210
0.0
220
0.0
230
1.0
  2
ANSI31
 70
0
 71
0
 91
1
 92
3
 72
0
 73
1
 93
4
 10
123.0
 20
92.0
 10
157.0
 20
92.0
 10
157.0
 20
93.0
 10
123.0
 20
93.0
 97
0
 75
1
 76
1
 52
0.0
 41
0.35
 77
0
 78
1
 53
45.0
 43
0.0
 44
0.0
 45
-0.7857724106
 46
0.7857724106
 79
0
 98
0
  0
LWPOLYLINE
  5
1C1
330
17
100
AcDbEntity
  8
OUTLINE
100
AcDbPolyline
 90
12
 70
1
 10
123.0
 20
95.4
 10
157.0
 20
95.4
 10
157.0
 20
101.2
 10
153.35
 20
101.2
 10
153.35
 20
100.0
 10
152.35
 20
100.0
 10
152.35
 20
96.6
 10
127.65
 20
96.6
 10
127.65
 20
100.0
 10
126.65
 20
100.0
 10
126.65
 20
101.2
 10
123.0
 20
101.2
  0
HATCH
  5
1C2
330
17
100
AcDbEntity
  8
HATCH
 62
7
100
AcDbHatch
 10
0.0
 20
0.0
 30
0.0
210
0.0
220
0.0
230
1.0
  2
ANSI31
 70
0
 71
0
 91
1
 92
3
 72
0
 73
1
 93
12
 10
123.0
 20
95.4
 10
157.0
 20
95.4
 10
157.0
 20
101.2
 10
153.35
 20
101.2
 10
153.35
 20
100.0
 10
152.35
 20
100.0
 10
152.35
 20
96.6
 10
127.65
 20
96.6
 10
127.65
 20
100.0
 10
126.65
 20
100.0
 10
126.65
 20
101.2
 10
123.0
 20
101.2
 97
0
 75
1
 76
1
 52
0.0
 41
0.35
 77
0
 78
1
 53
45.0
 43
0.0
 44
0.0
 45
-0.7857724106
 46
0.7857724106
 79
0
 98
0
  0
LWPOLYLINE
  5
1C3
330
17
100
AcDbEntity
  8
OUTLINE
100
AcDbPolyline
 90
6
 70
1
 10
123.0
 20
101.2
 10
126.65
 20
101.2
 10
126.65
 20
106.8
 10
128.2
 20
106.8
 10
128.2
 20
107.8
 10
123.0
 20
107.8
  0
HATCH
  5
1C4
330
17
100
AcDbEntity
  8
HATCH
 62
7
100
AcDbHatch
 10
0.0
 20
0.0
 30
0.0
210
0.0
220
0.0
230
1.0
  2
ANSI31
 70
0
 71
0
 91
1
 92
3
 72
0
 73
1
 93
6
 10
123.0
 20
101.2
 10
126.65
 20
101.2
 10
126.65
 20
106.8
 10
128.2
 20
106.8
 10
128.2
 20
107.8
 10
123.0
 20
107.8
 97
0
 75
1
 76
1
 52
0.0
 41
0.35
 77
0
 78
1
 53
45.0
 43
0.0
 44
0.0
 45
-0.7857724106
 46
0.7857724106
 79
0
 98
0
  0
LWPOLYLINE
  5
1C5
330
17
100
AcDbEntity
  8
OUTLINE
100
AcDbPolyline
 90
6
 70
1
 10
157.0
 20
101.2
 10
153.35
 20
101.2
 10
153.35
 20
106.8
 10
151.8
 20
106.8
 10
151.8
 20
107.8
 10
157.0
 20
107.8
  0
HATCH
  5
1C6
330
17
100
AcDbEntity
  8
HATCH
 62
7
100
AcDbHatch
 10
0.0
 20
0.0
 30
0.0
210
0.0
220
0.0
230
1.0
  2
ANSI31
 70
0
 71
0
 91
1
 92
3
 72
0
 73
1
 93
6
 10
157.0
 20
101.2
 10
153.35
 20
101.2
 10
153.35
 20
106.8
 10
151.8
 20
106.8
 10
151.8
 20
107.8
 10
157.0
 20
107.8
 97
0
 75
1
 76
1
 52
0.0
 41
0.35
 77
0
 78
1
 53
45.0
 43
0.0
 44
0.0
 45
-0.7857724106
 46
0.7857724106
 79
0
 98
0
  0
LWPOLYLINE
  5
1C7
330
17
100
AcDbEntity
  8
BOARD
100
AcDbPolyline
 90
4
 70
1
 10
127.0
 20
100.0
 10
153.0
 20
100.0
 10
153.0
 20
101.2
 10
127.0
 20
101.2
  0
LWPOLYLINE
  5
1C8
330
17
100
AcDbEntity
  8
BOARD
100
AcDbPolyline
 90
4
 70
1
 10
127.4
 20
105.7
 10
152.6
 20
105.7
 10
152.6
 20
106.8
 10
127.4
 20
106.8
  0
TEXT
  5
1C9
330
17
100
AcDbEntity
  8
BOARD
100
AcDbText
 10
137.0
 20
100.2
 30
0.0
 40
0.9
  1
PCB
 11
137.0
 21
100.2
 31
0.0
100
AcDbText
  0
TEXT
  5
1CA
330
17
100
AcDbEntity
  8
BOARD
100
AcDbText
 10
135.0
 20
105.85
 30
0.0
 40
0.8
  1
touch glass
 11
135.0
 21
105.85
 31
0.0
100
AcDbText
  0
TEXT
  5
1CB
330
17
100
AcDbEntity
  8
HIDDEN
100
AcDbText
 10
137.0
 20
93.7
 30
0.0
 40
0.9
  1
strap
 11
137.0
 21
93.7
 31
0.0
100
AcDbText
  0
DIMENSION
  5
1CC
330
17
100
AcDbEntity
  8
DIM
100
AcDbDimension
  2
*D17
  3
EZDXF
 10
123.0
 20
110.8
 30
0.0
 11
125.6
 21
112.0
 31
0.0
 70
32
 71
5
  1
5.2
100
AcDbAlignedDimension
 13
123.0
 23
107.8
 33
0.0
 14
128.2
 24
107.8
 34
0.0
 50
0.0
100
AcDbRotatedDimension
  0
DIMENSION
  5
1DB
330
17
100
AcDbEntity
  8
DIM
100
AcDbDimension
  2
*D18
  3
EZDXF
 10
161.0
 20
106.8
 30
0.0
 11
159.2
 21
107.3
 31
0.0
 70
32
 71
5
  1
1
100
AcDbAlignedDimension
 13
151.8
 23
106.8
 33
0.0
 14
151.8
 24
107.8
 34
0.0
 50
90.0
100
AcDbRotatedDimension
  0
DIMENSION
  5
1EA
330
17
100
AcDbEntity
  8
DIM
100
AcDbDimension
  2
*D19
  3
EZDXF
 10
151.8
 20
103.8
 30
0.0
 11
152.2
 21
105.6
 31
0.0
 70
32
 71
5
  1
lip 0.8
100
AcDbAlignedDimension
 13
151.8
 23
106.8
 33
0.0
 14
152.6
 24
106.8
 34
0.0
 50
0.0
100
AcDbRotatedDimension
  0
TEXT
  5
1F9
330
17
100
AcDbEntity
  8
TEXT
100
AcDbText
 10
123.0
 20
115.8
 30
0.0
 40
2.4
  1
SECTION A-A
 11
123.0
 21
115.8
 31
0.0
100
AcDbText
  0
LWPOLYLINE
  5
1FA
330
17
100
AcDbEntity
  8
OUTLINE
100
AcDbPolyline
 90
8
 70
1
 10
182.7
 20
100.0
 10
187.3
 20
100.0
 10
187.3
 20
100.6
 10
186.5
 20
100.6
 10
186.5
 20
105.4
 10
183.5
 20
105.4
 10
183.5
 20
100.6
 10
182.7
 20
100.6
  0
LINE
  5
1FB
330
17
100
AcDbEntity
  8
CENTER
100
AcDbLine
 10
185.0
 20
98.0
 30
0.0
 11
185.0
 21
107.4
 31
0.0
  0
DIMENSION
  5
1FC
330
17
100
AcDbEntity
  8
DIM
100
AcDbDimension
  2
*D20
  3
EZDXF
 10
190.3
 20
100.0
 30
0.0
 11
189.10000000000002
 21
102.7
 31
0.0
 70
32
 71
5
  1
5.4
100
AcDbAlignedDimension
 13
187.3
 23
100.0
 33
0.0
 14
187.3
 24
105.4
 34
0.0
 50
90.0
100
AcDbRotatedDimension
  0
DIMENSION
  5
20B
330
17
100
AcDbEntity
  8
DIM
100
AcDbDimension
  2
*D21
  3
EZDXF
 10
183.5
 20
107.9
 30
0.0
 11
185.0
 21
109.10000000000001
 31
0.0
 70
32
 71
5
  1
3
100
AcDbAlignedDimension
 13
183.5
 23
105.4
 33
0.0
 14
186.5
 24
105.4
 34
0.0
 50
0.0
100
AcDbRotatedDimension
  0
DIMENSION
  5
21A
330
17
100
AcDbEntity
  8
DIM
100
AcDbDimension
  2
*D22
  3
EZDXF
 10
182.7
 20
97.2
 30
0.0
 11
185.0
 21
99.0
 31
0.0
 70
32
 71
5
  1
4.6
100
AcDbAlignedDimension
 13
182.7
 23
100.0
 33
0.0
 14
187.3
 24
100.0
 34
0.0
 50
0.0
100
AcDbRotatedDimension
  0
TEXT
  5
229
330
17
100
AcDbEntity
  8
TEXT
100
AcDbText
 10
180.0
 20
112.4
 30
0.0
 40
2.0
  1
BUTTON CAP x2
 11
180.0
 21
112.4
 31
0.0
100
AcDbText
  0
TEXT
  5
22A
330
17
100
AcDbEntity
  8
TEXT
100
AcDbText
 10
8.0
 20
26.0
 30
0.0
 40
1.8
  1
NOTES
 11
8.0
 21
26.0
 31
0.0
100
AcDbText
  0
TEXT
  5
22B
330
17
100
AcDbEntity
  8
TEXT
100
AcDbText
 10
8.0
 20
23.0
 30
0.0
 40
1.1
  1
1. Units mm. Board values nominal (LILYGO: 62 x 26 x 10) - verify with calipers, edit case_params.py.
 11
8.0
 21
23.0
 31
0.0
100
AcDbText
  0
TEXT
  5
22C
330
17
100
AcDbEntity
  8
TEXT
100
AcDbText
 10
8.0
 20
20.6
 30
0.0
 40
1.1
  1
2. Print PETG/ASA, 0.2 mm layers, both shells face-down on the joint, no supports.
 11
8.0
 21
20.6
 31
0.0
100
AcDbText
  0
TEXT
  5
22D
330
17
100
AcDbEntity
  8
TEXT
100
AcDbText
 10
8.0
 20
18.2
 30
0.0
 40
1.1
  1
3. Assembly: board into tray, caps into lid, lid on, 4 x M2 x 8 self-tapping from below.
 11
8.0
 21
18.2
 31
0.0
100
AcDbText
  0
TEXT
  5
22E
330
17
100
AcDbEntity
  8
TEXT
100
AcDbText
 10
8.0
 20
15.8
 30
0.0
 40
1.1
  1
4. Strap tunnel under the board takes a 38-40 mm band, worn on the upper arm.
 11
8.0
 21
15.8
 31
0.0
100
AcDbText
  0
TEXT
  5
22F
330
17
100
AcDbEntity
  8
TEXT
100
AcDbText
 10
8.0
 20
13.4
 30
0.0
 40
1.1
  1
5. Clearance 0.35 mm per side around the PCB; lid overlaps the glass by 0.8 mm.
 11
8.0
 21
13.4
 31
0.0
100
AcDbText
  0
LWPOLYLINE
  5
230
330
17
100
AcDbEntity
  8
FRAME
100
AcDbPolyline
 90
4
 70
1
 10
140.0
 20
4.0
 10
206.0
 20
4.0
 10
206.0
 20
26.0
 10
140.0
 20
26.0
  0
LINE
  5
231
330
17
100
AcDbEntity
  8
FRAME
100
AcDbLine
 10
140.0
 20
11.0
 30
0.0
 11
206.0
 21
11.0
 31
0.0
  0
LINE
  5
232
330
17
100
AcDbEntity
  8
FRAME
100
AcDbLine
 10
140.0
 20
18.0
 30
0.0
 11
206.0
 21
18.0
 31
0.0
  0
LINE
  5
233
330
17
100
AcDbEntity
  8
FRAME
100
AcDbLine
 10
173.0
 20
4.0
 30
0.0
 11
173.0
 21
18.0
 31
0.0
  0
TEXT
  5
234
330
17
100
AcDbEntity
  8
TEXT
100
AcDbText
 10
141.5
 20
21.0
 30
0.0
 40
1.6
  1
NOVA-BAND pod  |  T-Display-S3 Touch
 11
141.5
 21
21.0
 31
0.0
100
AcDbText
  0
TEXT
  5
235
330
17
100
AcDbEntity
  8
TEXT
100
AcDbText
 10
141.5
 20
13.5
 30
0.0
 40
1.4
  1
NB-CASE-01  rev A
 11
141.5
 21
13.5
 31
0.0
100
AcDbText
  0
TEXT
  5
236
330
17
100
AcDbEntity
  8
TEXT
100
AcDbText
 10
174.5
 20
13.5
 30
0.0
 40
1.4
  1
Scale 2:1 on A3  |  mm
 11
174.5
 21
13.5
 31
0.0
100
AcDbText
  0
TEXT
  5
237
330
17
100
AcDbEntity
  8
TEXT
100
AcDbText
 10
141.5
 20
6.5
 30
0.0
 40
1.2
  1
Team Nova-Band, SMAN 1 Ska
 11
141.5
 21
6.5
 31
0.0
100
AcDbText
  0
TEXT
  5
238
330
17
100
AcDbEntity
  8
TEXT
100
AcDbText
 10
174.5
 20
6.5
 30
0.0
 40
1.4
  1
2026-09-28  |  sheet 1/1
 11
174.5
 21
6.5
 31
0.0
100
AcDbText
  0
LWPOLYLINE
  5
239
330
17
100
AcDbEntity
  8
FRAME
100
AcDbPolyline
 90
4
 70
1
 10
2.0
 20
2.0
 10
208.0
 20
2.0
 10
208.0
 20
146.5
 10
2.0
 20
146.5
  0
ENDSEC
  0
SECTION
  2
OBJECTS
  0
DICTIONARY
  5
A
330
0
100
AcDbDictionary
281
1
  3
ACAD_COLOR
350
B
  3
ACAD_GROUP
350
C
  3
ACAD_LAYOUT
350
D
  3
ACAD_MATERIAL
350
E
  3
ACAD_MLEADERSTYLE
350
F
  3
ACAD_MLINESTYLE
350
10
  3
ACAD_PLOTSETTINGS
350
11
  3
ACAD_PLOTSTYLENAME
350
12
  3
ACAD_SCALELIST
350
14
  3
ACAD_TABLESTYLE
350
15
  3
ACAD_VISUALSTYLE
350
16
  3
EZDXF_META
350
2D
  0
DICTIONARY
  5
B
330
A
100
AcDbDictionary
281
1
  0
DICTIONARY
  5
C
330
A
100
AcDbDictionary
281
1
  0
DICTIONARY
  5
D
330
A
100
AcDbDictionary
281
1
  3
Model
350
1A
  3
Layout1
350
1E
  0
DICTIONARY
  5
E
330
A
100
AcDbDictionary
281
1
  3
ByBlock
350
1F
  3
ByLayer
350
20
  3
Global
350
21
  0
DICTIONARY
  5
F
330
A
100
AcDbDictionary
281
1
  3
Standard
350
2C
  0
DICTIONARY
  5
10
330
A
100
AcDbDictionary
281
1
  3
Standard
350
22
  0
DICTIONARY
  5
11
330
A
100
AcDbDictionary
281
1
  0
ACDBDICTIONARYWDFLT
  5
12
330
A
100
AcDbDictionary
281
1
  3
Normal
350
13
100
AcDbDictionaryWithDefault
340
13
  0
ACDBPLACEHOLDER
  5
13
330
12
  0
DICTIONARY
  5
14
330
A
100
AcDbDictionary
281
1
  0
DICTIONARY
  5
15
330
A
100
AcDbDictionary
281
1
  0
DICTIONARY
  5
16
330
A
100
AcDbDictionary
281
1
  3
2dWireframe
350
5A
  3
Basic
350
5B
  3
Brighten
350
5C
  3
ColorChange
350
5D
  3
Conceptual
350
5E
  3
Dim
350
5F
  3
EdgeColorOff
350
60
  3
Facepattern
350
61
  3
Flat
350
62
  3
FlatWithEdges
350
63
  3
Gouraud
350
64
  3
GouraudWithEdges
350
65
  3
Hidden
350
66
  3
JitterOff
350
67
  3
Linepattern
350
68
  3
Modeling
350
69
  3
OverhangOff
350
6A
  3
Realistic
350
6B
  3
Shaded
350
6C
  3
Shaded with edges
350
6D
  3
Shades of Gray
350
6E
  3
Sketchy
350
6F
  3
Thicken
350
70
  3
Wireframe
350
71
  3
X-Ray
350
72
  0
LAYOUT
  5
1A
330
D
100
AcDbPlotSettings
  1

  4
A3
  6

 40
7.5
 41
20.0
 42
7.5
 43
20.0
 44
420.0
 45
297.0
 46
0.0
 47
0.0
 48
0.0
 49
0.0
140
0.0
141
0.0
142
1.0
143
1.0
 70
1024
 72
1
 73
0
 74
5
  7

 75
16
 76
0
 77
2
 78
300
147
1.0
148
0.0
149
0.0
100
AcDbLayout
  1
Model
 70
1
 71
0
 10
0.0
 20
0.0
 11
420.0
 21
297.0
 12
0.0
 22
0.0
 32
0.0
 14
1e+20
 24
1e+20
 34
1e+20
 15
-1e+20
 25
-1e+20
 35
-1e+20
146
0.0
 13
0.0
 23
0.0
 33
0.0
 16
1.0
 26
0.0
 36
0.0
 17
0.0
 27
1.0
 37
0.0
 76
1
330
17
  0
LAYOUT
  5
1E
330
D
100
AcDbPlotSettings
  1

  4
A3
  6

 40
7.5
 41
20.0
 42
7.5
 43
20.0
 44
420.0
 45
297.0
 46
0.0
 47
0.0
 48
0.0
 49
0.0
140
0.0
141
0.0
142
1.0
143
1.0
 70
0
 72
1
 73
0
 74
5
  7

 75
16
 76
0
 77
2
 78
300
147
1.0
148
0.0
149
0.0
100
AcDbLayout
  1
Layout1
 70
1
 71
1
 10
0.0
 20
0.0
 11
420.0
 21
297.0
 12
0.0
 22
0.0
 32
0.0
 14
1e+20
 24
1e+20
 34
1e+20
 15
-1e+20
 25
-1e+20
 35
-1e+20
146
0.0
 13
0.0
 23
0.0
 33
0.0
 16
1.0
 26
0.0
 36
0.0
 17
0.0
 27
1.0
 37
0.0
 76
1
330
1B
  0
MATERIAL
  5
1F
102
{ACAD_REACTORS
330
E
102
}
330
E
100
AcDbMaterial
  1
ByBlock
  2

 70
0
 40
1.0
 71
1
 41
1.0
 91
-1023410177
 42
1.0
 72
1
  3

 73
1
 74
1
 75
1
 44
0.5
 73
0
 45
1.0
 46
1.0
 77
1
  4

 78
1
 79
1
170
1
 48
1.0
171
1
  6

172
1
173
1
174
1
140
1.0
141
1.0
175
1
  7

176
1
177
1
178
1
143
1.0
179
1
  8

270
1
271
1
272
1
145
1.0
146
1.0
273
1
  9

274
1
275
1
276
1
 42
1.0
 72
1
  3

 73
1
 74
1
 75
1
 94
63
  0
MATERIAL
  5
20
102
{ACAD_REACTORS
330
E
102
}
330
E
100
AcDbMaterial
  1
ByLayer
  2

 70
0
 40
1.0
 71
1
 41
1.0
 91
-1023410177
 42
1.0
 72
1
  3

 73
1
 74
1
 75
1
 44
0.5
 73
0
 45
1.0
 46
1.0
 77
1
  4

 78
1
 79
1
170
1
 48
1.0
171
1
  6

172
1
173
1
174
1
140
1.0
141
1.0
175
1
  7

176
1
177
1
178
1
143
1.0
179
1
  8

270
1
271
1
272
1
145
1.0
146
1.0
273
1
  9

274
1
275
1
276
1
 42
1.0
 72
1
  3

 73
1
 74
1
 75
1
 94
63
  0
MATERIAL
  5
21
102
{ACAD_REACTORS
330
E
102
}
330
E
100
AcDbMaterial
  1
Global
  2

 70
0
 40
1.0
 71
1
 41
1.0
 91
-1023410177
 42
1.0
 72
1
  3

 73
1
 74
1
 75
1
 44
0.5
 73
0
 45
1.0
 46
1.0
 77
1
  4

 78
1
 79
1
170
1
 48
1.0
171
1
  6

172
1
173
1
174
1
140
1.0
141
1.0
175
1
  7

176
1
177
1
178
1
143
1.0
179
1
  8

270
1
271
1
272
1
145
1.0
146
1.0
273
1
  9

274
1
275
1
276
1
 42
1.0
 72
1
  3

 73
1
 74
1
 75
1
 94
63
  0
MLINESTYLE
  5
22
102
{ACAD_REACTORS
330
10
102
}
330
10
100
AcDbMlineStyle
  2
Standard
 70
0
  3

 62
256
 51
90.0
 52
90.0
 71
2
 49
0.5
 62
256
  6
BYLAYER
 49
-0.5
 62
256
  6
BYLAYER
  0
MLEADERSTYLE
  5
2C
102
{ACAD_REACTORS
330
F
102
}
330
F
100
AcDbMLeaderStyle
179
2
170
2
171
1
172
0
 90
2
 40
0.0
 41
0.0
173
1
 91
-1056964608
 92
-2
290
1
 42
2.0
291
1
 43
8.0
  3
Standard
 44
4.0
300

342
29
174
1
175
1
176
0
178
1
 93
-1056964608
 45
4.0
292
0
297
0
 46
4.0
 94
-1056964608
 47
1.0
 49
1.0
140
1.0
294
1
141
0.0
177
0
142
1.0
295
0
296
0
143
3.75
271
0
272
9
273
9
  0
DICTIONARY
  5
2D
330
A
100
AcDbDictionary
280
1
281
1
  3
CREATED_BY_EZDXF
350
2E
  3
WRITTEN_BY_EZDXF
350
23C
  0
DICTIONARYVAR
  5
2E
330
2D
100
DictionaryVariables
280
0
  1
1.4.4 @ 2026-09-28T04:35:41.789458+00:00
  0
VISUALSTYLE
  5
5A
102
{ACAD_REACTORS
330
16
102
}
330
16
100
AcDbVisualStyle
  2
2dWireframe
 70
4
 90
0
 40
0.6
 62
7
290
0
291
0
  0
VISUALSTYLE
  5
5B
102
{ACAD_REACTORS
330
16
102
}
330
16
100
AcDbVisualStyle
  2
Basic
 70
7
 90
1
 40
0.6
 62
7
290
0
291
1
  0
VISUALSTYLE
  5
5C
102
{ACAD_REACTORS
330
16
102
}
330
16
100
AcDbVisualStyle
  2
Brighten
 70
12
 90
2
 40
0.6
 62
7
290
0
291
1
  0
VISUALSTYLE
  5
5D
102
{ACAD_REACTORS
330
16
102
}
330
16
100
AcDbVisualStyle
  2
ColorChange
 70
16
 90
2
 40
0.6
 62
8
290
0
291
1
  0
VISUALSTYLE
  5
5E
102
{ACAD_REACTORS
330
16
102
}
330
16
100
AcDbVisualStyle
  2
Conceptual
 70
9
 90
3
 40
0.6
 62
7
290
0
291
0
  0
VISUALSTYLE
  5
5F
102
{ACAD_REACTORS
330
16
102
}
330
16
100
AcDbVisualStyle
  2
Dim
 70
11
 90
2
 40
0.6
 62
7
290
0
291
1
  0
VISUALSTYLE
  5
60
102
{ACAD_REACTORS
330
16
102
}
330
16
100
AcDbVisualStyle
  2
EdgeColorOff
 70
22
 90
2
 40
0.6
 62
7
290
0
291
1
  0
VISUALSTYLE
  5
61
102
{ACAD_REACTORS
330
16
102
}
330
16
100
AcDbVisualStyle
  2
Facepattern
 70
15
 90
2
 40
0.6
 62
7
290
0
291
1
  0
VISUALSTYLE
  5
62
102
{ACAD_REACTORS
330
16
102
}
330
16
100
AcDbVisualStyle
  2
Flat
 70
0
 90
2
 40
0.6
 62
7
290
0
291
1
  0
VISUALSTYLE
  5
63
102
{ACAD_REACTORS
330
16
102
}
330
16
100
AcDbVisualStyle
  2
FlatWithEdges
 70
1
 90
2
 40
0.6
 62
7
290
0
291
1
  0
VISUALSTYLE
  5
64
102
{ACAD_REACTORS
330
16
102
}
330
16
100
AcDbVisualStyle
  2
Gouraud
 70
2
 90
2
 40
0.6
 62
7
290
0
291
1
  0
VISUALSTYLE
  5
65
102
{ACAD_REACTORS
330
16
102
}
330
16
100
AcDbVisualStyle
  2
GouraudWithEdges
 70
3
 90
2
 40
0.6
 62
7
290
0
291
1
  0
VISUALSTYLE
  5
66
102
{ACAD_REACTORS
330
16
102
}
330
16
100
AcDbVisualStyle
  2
Hidden
 70
6
 90
1
 40
0.6
 62
7
290
0
291
0
  0
VISUALSTYLE
  5
67
102
{ACAD_REACTORS
330
16
102
}
330
16
100
AcDbVisualStyle
  2
JitterOff
 70
20
 90
2
 40
0.6
 62
7
290
0
291
1
  0
VISUALSTYLE
  5
68
102
{ACAD_REACTORS
330
16
102
}
330
16
100
AcDbVisualStyle
  2
Linepattern
 70
14
 90
2
 40
0.6
 62
7
290
0
291
1
  0
VISUALSTYLE
  5
69
102
{ACAD_REACTORS
330
16
102
}
330
16
100
AcDbVisualStyle
  2
Modeling
 70
10
 90
2
 40
0.6
 62
7
290
0
291
0
  0
VISUALSTYLE
  5
6A
102
{ACAD_REACTORS
330
16
102
}
330
16
100
AcDbVisualStyle
  2
OverhangOff
 70
21
 90
2
 40
0.6
 62
7
290
0
291
1
  0
VISUALSTYLE
  5
6B
102
{ACAD_REACTORS
330
16
102
}
330
16
100
AcDbVisualStyle
  2
Realistic
 70
8
 90
2
 40
0.6
 62
7
290
0
291
0
  0
VISUALSTYLE
  5
6C
102
{ACAD_REACTORS
330
16
102
}
330
16
100
AcDbVisualStyle
  2
Shaded
 70
27
 90
2
 40
0.6
 62
7
290
0
291
0
  0
VISUALSTYLE
  5
6D
102
{ACAD_REACTORS
330
16
102
}
330
16
100
AcDbVisualStyle
  2
Shaded with edges
 70
26
 90
2
 40
0.6
 62
7
290
0
291
0
  0
VISUALSTYLE
  5
6E
102
{ACAD_REACTORS
330
16
102
}
330
16
100
AcDbVisualStyle
  2
Shades of Gray
 70
23
 90
2
 40
0.6
 62
7
290
0
291
0
  0
VISUALSTYLE
  5
6F
102
{ACAD_REACTORS
330
16
102
}
330
16
100
AcDbVisualStyle
  2
Sketchy
 70
24
 90
1
 40
0.6
 62
7
290
0
291
0
  0
VISUALSTYLE
  5
70
102
{ACAD_REACTORS
330
16
102
}
330
16
100
AcDbVisualStyle
  2
Thicken
 70
13
 90
2
 40
0.6
 62
7
290
0
291
1
  0
VISUALSTYLE
  5
71
102
{ACAD_REACTORS
330
16
102
}
330
16
100
AcDbVisualStyle
  2
Wireframe
 70
5
 90
0
 40
0.6
 62
7
290
0
291
0
  0
VISUALSTYLE
  5
72
102
{ACAD_REACTORS
330
16
102
}
330
16
100
AcDbVisualStyle
  2
X-Ray
 70
25
 90
2
 40
0.5
 62
7
290
0
291
0
  0
DICTIONARYVAR
  5
23C
330
2D
100
DictionaryVariables
280
0
  1
1.4.4 @ 2026-09-28T04:35:41.810484+00:00
  0
ENDSEC
  0
EOF
